<?xml version="1.0" encoding="utf-8"?>
<!-- Generator: Adobe Illustrator 18.0.0, SVG Export Plug-In . SVG Version: 6.00 Build 0)  -->
<!DOCTYPE svg PUBLIC "-//W3C//DTD SVG 1.1//EN" "http://www.w3.org/Graphics/SVG/1.1/DTD/svg11.dtd">
<svg version="1.1" id="Layer_1" xmlns="http://www.w3.org/2000/svg" xmlns:xlink="http://www.w3.org/1999/xlink" x="0px" y="0px"
	 viewBox="0 0 1400 980" enable-background="new 0 0 1400 980" xml:space="preserve">
<g>
	<g>
		<g>
			<g>
				<rect fill="#C6E8EC" width="1400" height="980"/>
			</g>
		</g>
	</g>
	<g opacity="0.15">
		<g>
			<circle fill="#FFFFFF" cx="700" cy="490" r="429"/>
			<path fill="#4B5A70" d="M700,929.6c-242.4,0-439.6-197.2-439.6-439.6S457.6,50.4,700,50.4s439.6,197.2,439.6,439.6
				S942.4,929.6,700,929.6z M700,71.5c-230.7,0-418.5,187.7-418.5,418.5S469.3,908.5,700,908.5s418.5-187.7,418.5-418.5
				S930.7,71.5,700,71.5z"/>
		</g>
		<g>
			<path fill="#4B5A70" d="M700,929.6c-143.5,0-260.2-197.2-260.2-439.6S556.5,50.4,700,50.4S960.2,247.6,960.2,490
				S843.5,929.6,700,929.6z M700,71.5c-131.9,0-239.1,187.7-239.1,418.5S568.1,908.5,700,908.5c131.9,0,239.1-187.7,239.1-418.5
				S831.9,71.5,700,71.5z"/>
		</g>
		<g>
			<path fill="#4B5A70" d="M700,929.6c-5.8,0-10.5-4.7-10.5-10.5V61c0-5.8,4.7-10.5,10.5-10.5s10.5,4.7,10.5,10.5v858
				C710.5,924.8,705.8,929.6,700,929.6z"/>
		</g>
		<g>
			<path fill="#4B5A70" d="M1129,500.5H271c-5.8,0-10.5-4.7-10.5-10.5s4.7-10.5,10.5-10.5h858c5.8,0,10.5,4.7,10.5,10.5
				S1134.8,500.5,1129,500.5z"/>
		</g>
		<g>
			<g>
				<path fill="#4B5A70" d="M700,382c-131.2,0-254.5-58-338.4-159.1c-3.7-4.5-3.1-11.1,1.4-14.9c4.5-3.7,11.1-3.1,14.9,1.4
					c79.9,96.2,197.3,151.4,322.2,151.4s242.3-55.2,322.2-151.4c3.7-4.5,10.4-5.1,14.9-1.4c4.5,3.7,5.1,10.4,1.4,14.9
					C954.5,324.1,831.2,382,700,382z"/>
			</g>
			<g>
				<path fill="#4B5A70" d="M1030.3,774.3c-3,0-6-1.3-8.1-3.8C942.3,674.3,824.9,619.1,700,619.1s-242.3,55.2-322.2,151.4
					c-3.7,4.5-10.4,5.1-14.9,1.4c-4.5-3.7-5.1-10.4-1.4-14.9C445.5,655.9,568.8,598,700,598s254.5,58,338.4,159.1
					c3.7,4.5,3.1,11.1-1.4,14.9C1035.1,773.5,1032.7,774.3,1030.3,774.3z"/>
			</g>
		</g>
	</g>
	<path opacity="0.6" fill="#557F80" d="M597.1,594.5C597.1,594.5,597.1,594.5,597.1,594.5c27.1,32.3,67.7,52.9,113,52.9
		c45.3,0,85.9-20.6,112.9-52.8c0,0,0,0,0,0c0.3-0.3,0.6-0.6,0.8-1c21-25.5,33.6-58,33.6-93.5c0-35.5-12.6-68.1-33.6-93.5
		c-0.2-0.4-0.5-0.7-0.8-1c0,0,0,0,0,0c-27-32.3-67.6-52.8-112.9-52.8c-45.3,0-85.9,20.6-112.9,52.8c0,0,0,0,0,0
		c-0.3,0.3-0.6,0.6-0.8,1c-21,25.5-33.6,58-33.6,93.5c0,35.5,12.6,68.1,33.6,93.5C596.5,593.9,596.7,594.2,597.1,594.5z"/>
	<path opacity="0.6" fill="#557F80" d="M823,692H597c-5.5,0-9.9,4.5-9.9,9.9s4.5,9.9,9.9,9.9h54.4l-6.5,50.1c-0.2,1.8,1,3.5,2.8,3.9
		l2.6,0.6v39.4c0,16.1,6.4,30.8,16.9,41.5L623,872.2c-9.1,5.1-14.8,14.8-14.8,25.3v22.2c0,2,1.6,3.5,3.5,3.5h196.6
		c2,0,3.5-1.6,3.5-3.5v-22.2c0-10.5-5.7-20.1-14.8-25.3l-14.4-8.1c0,0,0,0,0,0l-29.8-16.8c10.4-10.8,16.9-25.4,16.9-41.5v-39.4
		l2.6-0.6c1.8-0.4,3-2.1,2.8-3.9l-6.5-50.1h27.9v91.4c0,2,1.6,3.5,3.5,3.5s3.5-1.6,3.5-3.5v-91.4H823c5.5,0,9.9-4.5,9.9-9.9
		S828.5,692,823,692z"/>
	<path opacity="0.6" fill="#557F80" d="M597,96.7h54.4l-6.5,50.1c-0.2,1.8,1,3.5,2.8,3.9l2.6,0.6v39.4c0,16.1,6.4,30.8,16.9,41.5
		L623,257.1c-9.1,5.1-14.8,14.8-14.8,25.3v22.2c0,2,1.6,3.5,3.5,3.5h196.6c2,0,3.5-1.6,3.5-3.5v-22.2c0-10.5-5.7-20.1-14.8-25.3
		l-14.4-8.1c0,0,0,0,0,0l-29.8-16.8c10.4-10.8,16.9-25.4,16.9-41.5v-39.4l2.6-0.6c1.8-0.4,3-2.1,2.8-3.9l-6.5-50.1h27.9v91.4
		c0,2,1.6,3.5,3.5,3.5s3.5-1.6,3.5-3.5V96.7H823c5.5,0,9.9-4.5,9.9-9.9s-4.5-9.9-9.9-9.9H597c-5.5,0-9.9,4.5-9.9,9.9
		S591.5,96.7,597,96.7z"/>
	<path opacity="0.6" fill="#557F80" d="M383.2,331.2v4.7c0,1.4,0.9,2.7,2.2,3.3c1.3,0.6,2.8,0.2,3.9-0.8l7.2-7.2h2l7.2,7.2
		c0.7,0.7,1.6,1,2.5,1c0.5,0,0.9-0.1,1.4-0.3c1.3-0.5,2.2-1.8,2.2-3.3v-4.7h105.3c2,0,3.5-1.6,3.5-3.5v-1.3c0-1.5-1-2.9-2.4-3.4
		c-9.3-3.1-15.6-11.7-15.6-21.5c0-9.8,6.3-18.4,15.6-21.5c1.5-0.5,2.4-1.8,2.4-3.4v-1.3V99.7c0-2-1.6-3.5-3.5-3.5H386.4h-1.6
		c-16.4,0-29.7,13.3-29.7,29.7v175.7C355.2,317.4,367.6,330.3,383.2,331.2z"/>
	<path opacity="0.6" fill="#557F80" d="M881.3,327.5c0.3,0.1,0.7,0.2,1,0.2h128.3c0,0,0,0,0,0c0,0,0,0,0,0c0.3,0,0.6,0,0.8-0.1
		c10.5-1,18.9-9.3,19.7-20c0-0.1,0-0.2,0-0.3V131.8h30.3c1,0,1.9-0.4,2.6-1.1c0.7-0.7,1-1.7,0.9-2.7c-0.8-10.3-9-18.8-19.2-19.9
		c-0.3-0.1-0.7-0.2-1-0.2H916.4c-0.3,0-0.5,0-0.8,0.1c-10.4,0.9-19,9.4-19.8,20c0,0.1,0,0.2,0,0.3v175.5h-30.3c-1,0-1.9,0.4-2.6,1.1
		c-0.7,0.7-1,1.7-0.9,2.7C862.8,317.9,871,326.4,881.3,327.5z"/>
	<path opacity="0.6" fill="#557F80" d="M488.4,582.3v-13.7c0-2-1.6-3.5-3.5-3.5h-22.7V426.2c0-6.6-5.4-12-12-12H248.7
		c-6.6,0-12,5.4-12,12v138.9h-22.7c-2,0-3.5,1.6-3.5,3.5v13.7c0,2,1.6,3.5,3.5,3.5h271C486.9,585.9,488.4,584.3,488.4,582.3z"/>
	<path opacity="0.6" fill="#557F80" d="M1206.2,410.8h-8.7v-5c0-2-1.6-3.5-3.5-3.5h-84.2c-7.3,0-13.8,3.3-18.2,8.5h-4
		c-4.4-5.2-10.9-8.5-18.2-8.5h-84.2c-2,0-3.5,1.6-3.5,3.5v5H973c-2,0-3.5,1.6-3.5,3.5v7.3v165.1v7.3c0,2,1.6,3.5,3.5,3.5h233.2
		c2,0,3.5-1.6,3.5-3.5v-7.3V421.7v-7.3C1209.7,412.4,1208.1,410.8,1206.2,410.8z"/>
	<path opacity="0.6" fill="#557F80" d="M961.9,697.6c-37.2,0-67.5,30.3-67.5,67.5c0,19.5,8.4,38.1,23.2,50.9c8,7,12.6,17,12.6,27.4
		c0,9.3,7.6,16.9,16.9,16.9h29.8c9.3,0,16.9-7.6,16.9-16.9c0-10.4,4.6-20.4,12.6-27.4c14.7-12.8,23.2-31.4,23.2-50.9
		C1029.4,727.9,999.1,697.6,961.9,697.6z"/>
	<path opacity="0.6" fill="#557F80" d="M987.6,862.9h-51.4c-2,0-3.5,1.6-3.5,3.5v28c0,9.1,7.4,16.5,16.5,16.5h25.5
		c9.1,0,16.5-7.4,16.5-16.5v-28C991.1,864.4,989.6,862.9,987.6,862.9z"/>
	<path opacity="0.6" fill="#557F80" d="M958.4,655.8v34c0,2,1.6,3.5,3.5,3.5s3.5-1.6,3.5-3.5v-34c0-2-1.6-3.5-3.5-3.5
		S958.4,653.9,958.4,655.8z"/>
	<path opacity="0.6" fill="#557F80" d="M1018.4,714.7l24-24c1.4-1.4,1.4-3.6,0-5c-1.4-1.4-3.6-1.4-5,0l-24,24c-1.4,1.4-1.4,3.6,0,5
		c0.7,0.7,1.6,1,2.5,1C1016.8,715.7,1017.7,715.3,1018.4,714.7z"/>
	<path opacity="0.6" fill="#557F80" d="M1072.2,762.6h-34c-2,0-3.5,1.6-3.5,3.5s1.6,3.5,3.5,3.5h34c2,0,3.5-1.6,3.5-3.5
		S1074.2,762.6,1072.2,762.6z"/>
	<path opacity="0.6" fill="#557F80" d="M1018.4,817.6c-1.4-1.4-3.6-1.4-5,0c-1.4,1.4-1.4,3.6,0,5l24,24c0.7,0.7,1.6,1,2.5,1
		s1.8-0.3,2.5-1c1.4-1.4,1.4-3.6,0-5L1018.4,817.6z"/>
	<path opacity="0.6" fill="#557F80" d="M881.4,685.6c-1.4,1.4-1.4,3.6,0,5l24,24c0.7,0.7,1.6,1,2.5,1c0.9,0,1.8-0.3,2.5-1
		c1.4-1.4,1.4-3.6,0-5l-24-24C885,684.2,882.8,684.2,881.4,685.6z"/>
	<path opacity="0.6" fill="#557F80" d="M889.1,766.1c0-2-1.6-3.5-3.5-3.5h-34c-2,0-3.5,1.6-3.5,3.5s1.6,3.5,3.5,3.5h34
		C887.5,769.7,889.1,768.1,889.1,766.1z"/>
	<path opacity="0.6" fill="#557F80" d="M905.4,817.6l-24,24c-1.4,1.4-1.4,3.6,0,5c0.7,0.7,1.6,1,2.5,1c0.9,0,1.8-0.3,2.5-1l24-24
		c1.4-1.4,1.4-3.6,0-5C909.1,816.2,906.8,816.2,905.4,817.6z"/>
	<path opacity="0.6" fill="#557F80" d="M476.5,731.5c-12.7,0-25.3,4-36.7,11.6c-0.2-3.2-0.6-7.1-1.5-11.6c0.5,0.3,1,0.5,1.6,0.6
		c2.2,0.3,4.3,0.4,6.3,0.4c0,0,0,0,0,0c41.5,0,44.9-50.5,44.9-51c0.1-1-0.3-2-1-2.7c-0.7-0.7-1.7-1.1-2.7-1c-1.1,0.1-27.6,1.8-42,19
		c-6.3,7.5-9.3,16.8-9,27.6c-4.9-15.5-16.6-33.7-43.8-42c-1.9-0.6-3.8,0.5-4.4,2.3s0.5,3.8,2.3,4.4c36.2,11.1,41.7,40.8,42.3,54.1
		c-11.4-7.6-24-11.6-36.8-11.6c-24.2,0-45.4,14.8-50.5,35.1c-7.4,29.6,21.5,100.3,46.8,114.6c5,2.8,10.3,4.3,15.6,4.3
		c13.3,0,23.6-8.8,28.3-13.7c4.7,4.9,15,13.7,28.3,13.7c0,0,0,0,0,0c5.3,0,10.6-1.4,15.6-4.3c25.4-14.3,54.2-84.9,46.8-114.6
		C521.9,746.3,500.7,731.5,476.5,731.5z M450.8,701.3c9.3-11.1,25.3-14.9,32.8-16c-1.6,11.2-8.6,40.1-37.4,40.1
		c-0.9,0-1.8,0-2.7-0.1C443,715.8,445.4,707.7,450.8,701.3z"/>
	<g>
		<g>
			<g>
				<circle fill="#50C2B9" cx="700" cy="490" r="143.8"/>
				<path fill="#323C49" d="M700,637.3c-81.2,0-147.3-66.1-147.3-147.3S618.8,342.7,700,342.7S847.3,408.8,847.3,490
					S781.2,637.3,700,637.3z M700,349.7c-77.3,0-140.3,62.9-140.3,140.3S622.7,630.3,700,630.3S840.3,567.3,840.3,490
					S777.3,349.7,700,349.7z"/>
			</g>
			<g>
				<path fill="#323C49" d="M700,637.3c-48.1,0-87.2-66.1-87.2-147.3s39.1-147.3,87.2-147.3c48.1,0,87.2,66.1,87.2,147.3
					S748.1,637.3,700,637.3z M700,349.7c-44.2,0-80.2,62.9-80.2,140.3s36,140.3,80.2,140.3c44.2,0,80.2-62.9,80.2-140.3
					S744.2,349.7,700,349.7z"/>
			</g>
			<g>
				<path fill="#323C49" d="M700,637.3c-2,0-3.5-1.6-3.5-3.5V346.2c0-2,1.6-3.5,3.5-3.5c2,0,3.5,1.6,3.5,3.5v287.6
					C703.5,635.7,702,637.3,700,637.3z"/>
			</g>
			<g>
				<path fill="#323C49" d="M843.8,493.5H556.2c-2,0-3.5-1.6-3.5-3.5s1.6-3.5,3.5-3.5h287.6c2,0,3.5,1.6,3.5,3.5
					S845.7,493.5,843.8,493.5z"/>
			</g>
			<g>
				<g>
					<path fill="#323C49" d="M700,453.8c-44,0-85.3-19.4-113.4-53.3c-1.2-1.5-1-3.7,0.5-5c1.5-1.2,3.7-1,5,0.5
						c26.8,32.3,66.1,50.8,108,50.8c41.9,0,81.2-18.5,108-50.8c1.2-1.5,3.5-1.7,5-0.5c1.5,1.2,1.7,3.5,0.5,5
						C785.3,434.4,744,453.8,700,453.8z"/>
				</g>
				<g>
					<path fill="#323C49" d="M810.7,585.3c-1,0-2-0.4-2.7-1.3c-26.8-32.3-66.1-50.8-108-50.8c-41.9,0-81.2,18.5-108,50.8
						c-1.2,1.5-3.5,1.7-5,0.5c-1.5-1.2-1.7-3.5-0.5-5c28.1-33.9,69.5-53.3,113.4-53.3c44,0,85.3,19.4,113.4,53.3
						c1.2,1.5,1,3.7-0.5,5C812.3,585,811.5,585.3,810.7,585.3z"/>
				</g>
			</g>
		</g>
		<g>
			<g>
				<path fill="#2C343D" d="M785.3,865.2l-49.7-28h-71.2l-49.7,28c-8,4.5-13,13-13,22.2v22.2H700h98.3v-22.2
					C798.3,878.2,793.3,869.8,785.3,865.2z"/>
				<path fill="#323C49" d="M798.3,913.1H601.7c-2,0-3.5-1.6-3.5-3.5v-22.2c0-10.5,5.7-20.1,14.8-25.3l49.7-28
					c0.5-0.3,1.1-0.5,1.7-0.5h71.2c0.6,0,1.2,0.2,1.7,0.5l49.7,28c9.1,5.1,14.8,14.8,14.8,25.3v22.2
					C801.8,911.6,800.3,913.1,798.3,913.1z M605.2,906.1h189.6v-18.6c0-7.9-4.3-15.2-11.2-19.1l-48.9-27.5h-69.3l-48.9,27.5
					c-6.9,3.9-11.2,11.2-11.2,19.1V906.1z"/>
			</g>
			<g>
				<polygon fill="#50C2B9" points="664.4,837.3 629,857.2 700,891.3 771,857.2 735.6,837.3 				"/>
				<path fill="#323C49" d="M700,894.8c-0.5,0-1-0.1-1.5-0.3l-71-34.1c-1.2-0.6-2-1.8-2-3.1c0-1.3,0.7-2.5,1.8-3.2l35.4-19.9
					c0.5-0.3,1.1-0.5,1.7-0.5h71.2c0.6,0,1.2,0.2,1.7,0.5l35.4,19.9c1.1,0.6,1.8,1.9,1.8,3.2c0,1.3-0.8,2.5-2,3.1l-71,34.1
					C701,894.7,700.5,894.8,700,894.8z M636.7,856.9l63.3,30.5l63.3-30.5l-28.7-16.1h-69.3L636.7,856.9z"/>
			</g>
			<g>
				<path fill="#F7D2A3" d="M671.7,829.3v14.4c0,15.6,12.7,28.3,28.3,28.3c15.6,0,28.3-12.7,28.3-28.3v-14.4H671.7z"/>
				<path fill="#323C49" d="M700,875.6c-17.6,0-31.8-14.3-31.8-31.8v-14.4c0-2,1.6-3.5,3.5-3.5h56.6c2,0,3.5,1.6,3.5,3.5v14.4
					C731.8,861.3,717.6,875.6,700,875.6z M675.2,832.9v10.9c0,13.7,11.1,24.8,24.8,24.8c13.7,0,24.8-11.1,24.8-24.8v-10.9H675.2z"/>
			</g>
			<g>
				<g>
					<path fill="#F7D2A3" d="M643.8,744.8v51c0,31,25.2,56.2,56.2,56.2h0c31,0,56.2-25.2,56.2-56.2v-51H643.8z"/>
					<path fill="#323C49" d="M700,855.5c-32.9,0-59.7-26.8-59.7-59.7v-51c0-2,1.6-3.5,3.5-3.5h112.4c2,0,3.5,1.6,3.5,3.5v51
						C759.7,828.7,732.9,855.5,700,855.5z M647.3,748.3v47.5c0,29,23.6,52.7,52.7,52.7c29,0,52.7-23.6,52.7-52.7v-47.5H647.3z"/>
				</g>
				<g>
					<g>
						<polygon fill="#6D6E71" points="645.4,698.5 700,698.5 700,765.6 638.4,752.4 						"/>
						<path fill="#323C49" d="M700,769.2c-0.2,0-0.5,0-0.7-0.1l-61.6-13.3c-1.8-0.4-3-2.1-2.8-3.9l7-53.8c0.2-1.8,1.7-3.1,3.5-3.1
							H700c2,0,3.5,1.6,3.5,3.5v67.1c0,1.1-0.5,2.1-1.3,2.8C701.6,768.9,700.8,769.2,700,769.2z M642.3,749.6l54.1,11.6v-59.2h-47.9
							L642.3,749.6z"/>
					</g>
					<g>
						<polygon fill="#474B52" points="754.6,698.5 700,698.5 700,765.6 761.6,752.4 						"/>
						<path fill="#323C49" d="M700,769.2c-0.8,0-1.6-0.3-2.2-0.8c-0.8-0.7-1.3-1.7-1.3-2.8v-67.1c0-2,1.6-3.5,3.5-3.5h54.6
							c1.8,0,3.3,1.3,3.5,3.1l7,53.8c0.2,1.8-1,3.5-2.8,3.9l-61.6,13.3C700.5,769.1,700.2,769.2,700,769.2z M703.5,702.1v59.2
							l54.1-11.6l-6.2-47.5H703.5z"/>
					</g>
				</g>
				<g>
					<path fill="#474B52" d="M813,685.5H587c-3.5,0-6.4,2.9-6.4,6.4c0,3.5,2.9,6.4,6.4,6.4h226c3.5,0,6.4-2.9,6.4-6.4
						C819.4,688.3,816.5,685.5,813,685.5z"/>
					<path fill="#323C49" d="M813,701.8H587c-5.5,0-9.9-4.5-9.9-9.9s4.5-9.9,9.9-9.9h226c5.5,0,9.9,4.5,9.9,9.9
						S818.5,701.8,813,701.8z M587,689c-1.6,0-2.9,1.3-2.9,2.9s1.3,2.9,2.9,2.9h226c1.6,0,2.9-1.3,2.9-2.9s-1.3-2.9-2.9-2.9H587z"/>
				</g>
				<g>
					<path fill="#323C49" d="M790,796.8c-2,0-3.5-1.6-3.5-3.5v-106c0-2,1.6-3.5,3.5-3.5s3.5,1.6,3.5,3.5v106
						C793.6,795.2,792,796.8,790,796.8z"/>
				</g>
			</g>
		</g>
		<g>
			<g>
				<path fill="#2C343D" d="M785.3,250.2l-49.7-28h-71.2l-49.7,28c-8,4.5-13,13-13,22.2v22.2H700h98.3v-22.2
					C798.3,263.2,793.3,254.7,785.3,250.2z"/>
				<path fill="#323C49" d="M798.3,298.1H601.7c-2,0-3.5-1.6-3.5-3.5v-22.2c0-10.5,5.7-20.1,14.8-25.3l49.7-28
					c0.5-0.3,1.1-0.5,1.7-0.5h71.2c0.6,0,1.2,0.2,1.7,0.5l49.7,28c9.1,5.1,14.8,14.8,14.8,25.3v22.2
					C801.8,296.5,800.3,298.1,798.3,298.1z M605.2,291h189.6v-18.6c0-7.9-4.3-15.2-11.2-19.1l-48.9-27.5h-69.3l-48.9,27.5
					c-6.9,3.9-11.2,11.2-11.2,19.1V291z"/>
			</g>
			<g>
				<polygon fill="#50C2B9" points="664.4,222.2 629,242.1 700,276.2 771,242.1 735.6,222.2 				"/>
				<path fill="#323C49" d="M700,279.8c-0.5,0-1-0.1-1.5-0.3l-71-34.1c-1.2-0.6-2-1.8-2-3.1c0-1.3,0.7-2.5,1.8-3.2l35.4-19.9
					c0.5-0.3,1.1-0.5,1.7-0.5h71.2c0.6,0,1.2,0.2,1.7,0.5l35.4,19.9c1.1,0.6,1.8,1.9,1.8,3.2c0,1.3-0.8,2.5-2,3.1l-71,34.1
					C701,279.6,700.5,279.8,700,279.8z M636.7,241.8l63.3,30.5l63.3-30.5l-28.7-16.1h-69.3L636.7,241.8z"/>
			</g>
			<g>
				<path fill="#CD9C65" d="M671.7,214.3v14.4c0,15.6,12.7,28.3,28.3,28.3c15.6,0,28.3-12.7,28.3-28.3v-14.4H671.7z"/>
				<path fill="#323C49" d="M700,260.5c-17.6,0-31.8-14.3-31.8-31.8v-14.4c0-2,1.6-3.5,3.5-3.5h56.6c2,0,3.5,1.6,3.5,3.5v14.4
					C731.8,246.2,717.6,260.5,700,260.5z M675.2,217.8v10.9c0,13.7,11.1,24.8,24.8,24.8c13.7,0,24.8-11.1,24.8-24.8v-10.9H675.2z"/>
			</g>
			<g>
				<g>
					<path fill="#CD9C65" d="M643.8,129.7v51c0,31,25.2,56.2,56.2,56.2h0c31,0,56.2-25.2,56.2-56.2v-51H643.8z"/>
					<path fill="#323C49" d="M700,240.4c-32.9,0-59.7-26.8-59.7-59.7v-51c0-2,1.6-3.5,3.5-3.5h112.4c2,0,3.5,1.6,3.5,3.5v51
						C759.7,213.6,732.9,240.4,700,240.4z M647.3,133.2v47.5c0,29,23.6,52.7,52.7,52.7c29,0,52.7-23.6,52.7-52.7v-47.5H647.3z"/>
				</g>
				<g>
					<g>
						<polygon fill="#6D6E71" points="645.4,83.5 700,83.5 700,150.6 638.4,137.3 						"/>
						<path fill="#323C49" d="M700,154.1c-0.2,0-0.5,0-0.7-0.1l-61.6-13.3c-1.8-0.4-3-2.1-2.8-3.9l7-53.8c0.2-1.8,1.7-3.1,3.5-3.1
							H700c2,0,3.5,1.6,3.5,3.5v67.1c0,1.1-0.5,2.1-1.3,2.8C701.6,153.8,700.8,154.1,700,154.1z M642.3,134.5l54.1,11.6V87h-47.9
							L642.3,134.5z"/>
					</g>
					<g>
						<polygon fill="#474B52" points="754.6,83.5 700,83.5 700,150.6 761.6,137.3 						"/>
						<path fill="#323C49" d="M700,154.1c-0.8,0-1.6-0.3-2.2-0.8c-0.8-0.7-1.3-1.7-1.3-2.8V83.5c0-2,1.6-3.5,3.5-3.5h54.6
							c1.8,0,3.3,1.3,3.5,3.1l7,53.8c0.2,1.8-1,3.5-2.8,3.9L700.7,154C700.5,154.1,700.2,154.1,700,154.1z M703.5,87v59.2l54.1-11.6
							L751.5,87H703.5z"/>
					</g>
				</g>
				<g>
					<path fill="#474B52" d="M813,70.4H587c-3.5,0-6.4,2.9-6.4,6.4c0,3.5,2.9,6.4,6.4,6.4h226c3.5,0,6.4-2.9,6.4-6.4
						C819.4,73.3,816.5,70.4,813,70.4z"/>
					<path fill="#323C49" d="M813,86.7H587c-5.5,0-9.9-4.5-9.9-9.9s4.5-9.9,9.9-9.9h226c5.5,0,9.9,4.5,9.9,9.9S818.5,86.7,813,86.7z
						 M587,73.9c-1.6,0-2.9,1.3-2.9,2.9s1.3,2.9,2.9,2.9h226c1.6,0,2.9-1.3,2.9-2.9s-1.3-2.9-2.9-2.9H587z"/>
				</g>
				<g>
					<path fill="#323C49" d="M790,181.7c-2,0-3.5-1.6-3.5-3.5v-106c0-2,1.6-3.5,3.5-3.5s3.5,1.6,3.5,3.5v106
						C793.6,180.1,792,181.7,790,181.7z"/>
				</g>
			</g>
		</g>
		<g>
			<g>
				<g>
					<g>
						<path fill="#FFFBD2" d="M488.9,291.5c0-11.6,7.6-21.4,18-24.8v-1.3H374.8c-14.4,0-26.2,11.7-26.2,26.2s11.7,26.2,26.2,26.2
							h132.1v-1.3C496.5,312.9,488.9,303.1,488.9,291.5z"/>
						<path fill="#323C49" d="M506.9,321.2H374.8c-16.4,0-29.7-13.3-29.7-29.7c0-16.4,13.3-29.7,29.7-29.7h132.1
							c2,0,3.5,1.6,3.5,3.5v1.3c0,1.5-1,2.9-2.4,3.4c-9.3,3.1-15.6,11.7-15.6,21.5s6.3,18.4,15.6,21.5c1.5,0.5,2.4,1.8,2.4,3.4v1.3
							C510.5,319.6,508.9,321.2,506.9,321.2z M374.8,268.9c-12.5,0-22.6,10.1-22.6,22.6s10.1,22.6,22.6,22.6h121
							c-6.5-5.5-10.5-13.7-10.5-22.6c0-8.9,4-17.1,10.5-22.6H374.8z"/>
					</g>
					<g>
						<g>
							<path fill="#BFD746" d="M374.8,89.7c-14.4,0-26.2,11.7-26.2,26.2v175.7c0-14.4,11.7-26.2,26.2-26.2h132.1V89.7H374.8z"/>
							<path fill="#323C49" d="M348.7,295c-2,0-3.5-1.6-3.5-3.5V115.8c0-16.4,13.3-29.7,29.7-29.7h132.1c2,0,3.5,1.6,3.5,3.5v175.7
								c0,2-1.6,3.5-3.5,3.5H374.8c-12.5,0-22.6,10.1-22.6,22.6C352.2,293.5,350.6,295,348.7,295z M374.8,93.2
								c-12.5,0-22.6,10.1-22.6,22.6v156.5c5.4-6.4,13.6-10.5,22.6-10.5h128.6V93.2H374.8z"/>
						</g>
					</g>
					<g>
						<g>
							<path fill="#8DC63F" d="M376.4,89.7h-1.6c-14.4,0-26.2,11.7-26.2,26.2v175.7c0-14.4,11.7-26.2,26.2-26.2h1.6V89.7z"/>
							<path fill="#323C49" d="M348.7,295c-2,0-3.5-1.6-3.5-3.5V115.8c0-16.4,13.3-29.7,29.7-29.7h1.6c2,0,3.5,1.6,3.5,3.5v175.7
								c0,2-1.6,3.5-3.5,3.5h-1.6c-12.5,0-22.6,10.1-22.6,22.6C352.2,293.5,350.6,295,348.7,295z M372.8,93.3
								c-11.6,1-20.6,10.7-20.6,22.5v156.5c5.1-5.9,12.4-9.9,20.6-10.4V93.3z"/>
						</g>
					</g>
					<g>
						<path fill="#FFFBD2" d="M461.8,118.7h-42c-8.1,0-14.8,6.6-14.8,14.8v9.8c0,8.1,6.6,14.8,14.8,14.8h42
							c8.1,0,14.8-6.6,14.8-14.8v-9.8C476.5,125.3,469.9,118.7,461.8,118.7z"/>
						<path fill="#323C49" d="M461.8,161.6h-42c-10.1,0-18.3-8.2-18.3-18.3v-9.8c0-10.1,8.2-18.3,18.3-18.3h42
							c10.1,0,18.3,8.2,18.3,18.3v9.8C480.1,153.4,471.9,161.6,461.8,161.6z M419.7,122.2c-6.2,0-11.2,5-11.2,11.2v9.8
							c0,6.2,5,11.2,11.2,11.2h42c6.2,0,11.2-5,11.2-11.2v-9.8c0-6.2-5-11.2-11.2-11.2H419.7z"/>
					</g>
				</g>
				<g>
					<polygon fill="#F15A29" points="387.4,290.6 376.7,290.6 376.7,325.9 387.4,315.2 398.1,325.9 398.1,290.6 					"/>
					<path fill="#323C49" d="M398.1,329.4c-0.9,0-1.8-0.4-2.5-1l-8.2-8.2l-8.2,8.2c-1,1-2.5,1.3-3.9,0.8c-1.3-0.5-2.2-1.8-2.2-3.3
						v-35.3c0-2,1.6-3.5,3.5-3.5h21.3c2,0,3.5,1.6,3.5,3.5v35.3c0,1.4-0.9,2.7-2.2,3.3C399,329.3,398.5,329.4,398.1,329.4z
						 M387.4,311.7c0.9,0,1.8,0.3,2.5,1l4.6,4.6v-23.3h-14.3v23.3l4.6-4.6C385.6,312,386.5,311.7,387.4,311.7z"/>
				</g>
			</g>
			<g>
				<g>
					<g>
						<path fill="#FFFBD2" d="M907.5,101.4c-9.6,0-17.4,7.4-18.2,16.8v0.7v88.8v89.5h-33.8c0.7,8.9,7.8,16.1,16.8,16.7v0.1h128.3
							c-0.2,0-0.4,0-0.6,0c9.3-0.3,16.9-7.6,17.6-16.8v-0.7v-88.8V101.7L907.5,101.4z"/>
						<path fill="#323C49" d="M1000.5,317.6H872.3c-0.4,0-0.7-0.1-1-0.2c-10.2-1.2-18.5-9.6-19.2-19.9c-0.1-1,0.3-1.9,0.9-2.7
							c0.7-0.7,1.6-1.1,2.6-1.1h30.3V118.2c0-0.1,0-0.2,0-0.3c0.9-11.3,10.4-20.1,21.7-20.1l110.1,0.3c1.9,0,3.5,1.6,3.5,3.5v195.6
							c0,0.1,0,0.2,0,0.3c-0.8,10.7-9.2,19-19.7,20C1001.1,317.6,1000.8,317.6,1000.5,317.6L1000.5,317.6
							C1000.5,317.6,1000.5,317.6,1000.5,317.6C1000.5,317.6,1000.5,317.6,1000.5,317.6z M873,310.6h126.6c0.1,0,0.2,0,0.3,0
							c7.5-0.2,13.5-6,14.2-13.4V105.2L907.4,105c-7.6,0-14,5.9-14.6,13.4v178.9c0,2-1.6,3.5-3.5,3.5h-29.4
							c1.9,5.3,6.9,9.2,12.7,9.7C872.7,310.5,872.8,310.5,873,310.6z"/>
					</g>
					<g>
						<path fill="#323C49" d="M872.6,317.5h-0.3c-2,0-3.5-1.6-3.5-3.5c0-2,1.6-3.5,3.5-3.5h0.3c7.3,0,13.2-5.9,13.2-13.2
							c0-2,1.6-3.5,3.5-3.5s3.5,1.6,3.5,3.5C892.8,308.5,883.8,317.5,872.6,317.5z"/>
					</g>
					<g>
						<path fill="#FFFBD2" d="M924.5,118.2h126.9c-0.7-8.9-7.8-16.1-16.8-16.7v-0.1H906.3C915.9,101.4,923.8,108.8,924.5,118.2z"/>
						<path fill="#323C49" d="M1051.3,121.8H924.5c-1.8,0-3.4-1.4-3.5-3.3c-0.6-7.6-7-13.6-14.6-13.6c-2,0-3.5-1.6-3.5-3.5
							s1.6-3.5,3.5-3.5h128.3c0.4,0,0.7,0.1,1,0.2c10.2,1.2,18.5,9.6,19.2,19.9c0.1,1-0.3,2-0.9,2.7
							C1053.3,121.4,1052.3,121.8,1051.3,121.8z M927.5,114.7H1047c-1.9-5.3-6.9-9.2-12.7-9.7c-0.1,0-0.3,0-0.4-0.1H922.3
							C924.8,107.7,926.6,111,927.5,114.7z"/>
					</g>
				</g>
				<g>
					<path fill="#323C49" d="M1001.1,145.1h-97.4c-2,0-3.5-1.6-3.5-3.5c0-2,1.6-3.5,3.5-3.5h97.4c2,0,3.5,1.6,3.5,3.5
						C1004.6,143.5,1003.1,145.1,1001.1,145.1z"/>
				</g>
				<g>
					<path fill="#323C49" d="M1001.1,163.2h-97.4c-2,0-3.5-1.6-3.5-3.5c0-2,1.6-3.5,3.5-3.5h97.4c2,0,3.5,1.6,3.5,3.5
						C1004.6,161.6,1003.1,163.2,1001.1,163.2z"/>
				</g>
				<g>
					<path fill="#323C49" d="M1001.1,181.3h-97.4c-2,0-3.5-1.6-3.5-3.5c0-2,1.6-3.5,3.5-3.5h97.4c2,0,3.5,1.6,3.5,3.5
						C1004.6,179.7,1003.1,181.3,1001.1,181.3z"/>
				</g>
				<g>
					<path fill="#323C49" d="M1001.1,199.4h-97.4c-2,0-3.5-1.6-3.5-3.5c0-2,1.6-3.5,3.5-3.5h97.4c2,0,3.5,1.6,3.5,3.5
						C1004.6,197.8,1003.1,199.4,1001.1,199.4z"/>
				</g>
				<g>
					<path fill="#323C49" d="M1001.1,217.5h-97.4c-2,0-3.5-1.6-3.5-3.5c0-2,1.6-3.5,3.5-3.5h97.4c2,0,3.5,1.6,3.5,3.5
						C1004.6,215.9,1003.1,217.5,1001.1,217.5z"/>
				</g>
				<g>
					<path fill="#323C49" d="M1003.6,249.3H973c-2,0-3.5-1.6-3.5-3.5c0-2,1.6-3.5,3.5-3.5h30.6c2,0,3.5,1.6,3.5,3.5
						C1007.1,247.8,1005.5,249.3,1003.6,249.3z"/>
				</g>
				<g>
					<path fill="#323C49" d="M1003.6,269.9H973c-2,0-3.5-1.6-3.5-3.5s1.6-3.5,3.5-3.5h30.6c2,0,3.5,1.6,3.5,3.5
						S1005.5,269.9,1003.6,269.9z"/>
				</g>
			</g>
		</g>
		<g>
			<g>
				<g>
					<path fill="#6D6E71" d="M448.6,559.7H230.1V411.3c0-2,1.6-3.6,3.6-3.6H445c2,0,3.6,1.6,3.6,3.6V559.7z"/>
					<path fill="#323C49" d="M448.6,563.2H230.1c-2,0-3.5-1.6-3.5-3.5V416.2c0-6.6,5.4-12,12-12h201.5c6.6,0,12,5.4,12,12v143.5
						C452.2,561.7,450.6,563.2,448.6,563.2z M233.7,556.2h211.4v-140c0-2.7-2.2-5-5-5H238.6c-2.7,0-5,2.2-5,5V556.2z"/>
				</g>
				<g>
					<rect x="239.6" y="424.2" fill="#FFFBD2" width="199.6" height="121.4"/>
					<path fill="#323C49" d="M439.2,549.1H239.6c-2,0-3.5-1.6-3.5-3.5V424.2c0-2,1.6-3.5,3.5-3.5h199.6c2,0,3.5,1.6,3.5,3.5v121.4
						C442.7,547.5,441.2,549.1,439.2,549.1z M243.1,542h192.6V427.7H243.1V542z"/>
				</g>
				<g>
					<rect x="203.9" y="558.7" fill="#6D6E71" width="271" height="13.7"/>
					<path fill="#323C49" d="M474.9,575.9h-271c-2,0-3.5-1.6-3.5-3.5v-13.7c0-2,1.6-3.5,3.5-3.5h271c2,0,3.5,1.6,3.5,3.5v13.7
						C478.4,574.3,476.8,575.9,474.9,575.9z M207.4,568.8h263.9v-6.6H207.4V568.8z"/>
				</g>
			</g>
			<g>
				<g>
					<rect x="962.9" y="413.7" fill="#D4D0B0" width="233.2" height="172.5"/>
					<path fill="#323C49" d="M1196.1,589.7H962.9c-2,0-3.5-1.6-3.5-3.5V413.7c0-2,1.6-3.5,3.5-3.5h233.2c2,0,3.5,1.6,3.5,3.5v172.5
						C1199.7,588.1,1198.1,589.7,1196.1,589.7z M966.5,582.6h226.1V417.2H966.5V582.6z"/>
				</g>
				<g>
					<rect x="962.9" y="404.4" fill="#FFFFFF" width="233.2" height="172.5"/>
					<path fill="#323C49" d="M1196.1,580.4H962.9c-2,0-3.5-1.6-3.5-3.5V404.4c0-2,1.6-3.5,3.5-3.5h233.2c2,0,3.5,1.6,3.5,3.5v172.5
						C1199.7,578.8,1198.1,580.4,1196.1,580.4z M966.5,573.3h226.1V407.9H966.5V573.3z"/>
				</g>
				<g>
					<path fill="#FFFBD2" d="M1079.5,475.1L1079.5,475.1c0-7.1-9-12.8-20.2-12.8h-84.2v101.3h84.2c11.2,0,20.2,5.7,20.2,12.8l0,0
						V475.1z"/>
					<path fill="#323C49" d="M1079.5,579.9c-2,0-3.5-1.6-3.5-3.5c0-4.4-6.8-9.3-16.7-9.3h-84.2c-2,0-3.5-1.6-3.5-3.5V462.3
						c0-2,1.6-3.5,3.5-3.5h84.2c13.3,0,23.7,7.2,23.7,16.4v101.3C1083.1,578.4,1081.5,579.9,1079.5,579.9z M978.7,560h80.7
						c6.6,0,12.4,1.7,16.7,4.6v-89.5c0-4.4-6.8-9.3-16.7-9.3h-80.7V560z"/>
				</g>
				<g>
					<path fill="#D4D0B0" d="M1079.5,475.1L1079.5,475.1c0-7.1,9-12.8,20.2-12.8h84.2v101.3h-84.2c-11.2,0-20.2,5.7-20.2,12.8l0,0
						V475.1z"/>
					<path fill="#323C49" d="M1079.5,579.9c-2,0-3.5-1.6-3.5-3.5V475.1c0-9.2,10.4-16.4,23.7-16.4h84.2c2,0,3.5,1.6,3.5,3.5v101.3
						c0,2-1.6,3.5-3.5,3.5h-84.2c-9.8,0-16.7,4.9-16.7,9.3C1083.1,578.4,1081.5,579.9,1079.5,579.9z M1099.7,465.8
						c-9.8,0-16.7,4.9-16.7,9.3v89.5c4.3-2.9,10.1-4.6,16.7-4.6h80.7v-94.2H1099.7z"/>
				</g>
				<g>
					<g>
						<g>
							<path fill="#FFFBD2" d="M1079.5,416.1L1079.5,416.1c0-11.2-9-20.2-20.2-20.2h-84.2v159.4h84.2c11.2,0,20.2,9,20.2,20.2l0,0
								V416.1z"/>
							<path fill="#323C49" d="M1079.5,579c-2,0-3.5-1.6-3.5-3.5c0-9.2-7.5-16.7-16.7-16.7h-84.2c-2,0-3.5-1.6-3.5-3.5V395.9
								c0-2,1.6-3.5,3.5-3.5h84.2c13.1,0,23.7,10.7,23.7,23.7v159.4C1083.1,577.4,1081.5,579,1079.5,579z M978.7,551.7h80.7
								c6.5,0,12.4,2.6,16.7,6.9V416.1c0-9.2-7.5-16.7-16.7-16.7h-80.7V551.7z"/>
						</g>
						<g>
							<path fill="#323C49" d="M1056,423h-67.4c-2,0-3.5-1.6-3.5-3.5s1.6-3.5,3.5-3.5h67.4c2,0,3.5,1.6,3.5,3.5S1057.9,423,1056,423
								z"/>
						</g>
						<g>
							<path fill="#323C49" d="M1056,438.7h-67.4c-2,0-3.5-1.6-3.5-3.5c0-2,1.6-3.5,3.5-3.5h67.4c2,0,3.5,1.6,3.5,3.5
								C1059.5,437.1,1057.9,438.7,1056,438.7z"/>
						</g>
						<g>
							<path fill="#323C49" d="M1056,454.4h-67.4c-2,0-3.5-1.6-3.5-3.5c0-2,1.6-3.5,3.5-3.5h67.4c2,0,3.5,1.6,3.5,3.5
								C1059.5,452.8,1057.9,454.4,1056,454.4z"/>
						</g>
						<g>
							<path fill="#323C49" d="M1056,470.1h-67.4c-2,0-3.5-1.6-3.5-3.5c0-2,1.6-3.5,3.5-3.5h67.4c2,0,3.5,1.6,3.5,3.5
								C1059.5,468.5,1057.9,470.1,1056,470.1z"/>
						</g>
						<g>
							<path fill="#323C49" d="M1056,485.8h-67.4c-2,0-3.5-1.6-3.5-3.5s1.6-3.5,3.5-3.5h67.4c2,0,3.5,1.6,3.5,3.5
								S1057.9,485.8,1056,485.8z"/>
						</g>
						<g>
							<path fill="#323C49" d="M1056,501.6h-67.4c-2,0-3.5-1.6-3.5-3.5s1.6-3.5,3.5-3.5h67.4c2,0,3.5,1.6,3.5,3.5
								S1057.9,501.6,1056,501.6z"/>
						</g>
						<g>
							<path fill="#323C49" d="M1056,517.3h-67.4c-2,0-3.5-1.6-3.5-3.5c0-2,1.6-3.5,3.5-3.5h67.4c2,0,3.5,1.6,3.5,3.5
								C1059.5,515.7,1057.9,517.3,1056,517.3z"/>
						</g>
						<g>
							<path fill="#323C49" d="M1056,533h-67.4c-2,0-3.5-1.6-3.5-3.5s1.6-3.5,3.5-3.5h67.4c2,0,3.5,1.6,3.5,3.5S1057.9,533,1056,533
								z"/>
						</g>
					</g>
					<g>
						<path fill="#D4D0B0" d="M1079.5,416.1L1079.5,416.1c0-11.2,9-20.2,20.2-20.2h84.2v159.4h-84.2c-11.2,0-20.2,9-20.2,20.2l0,0
							V416.1z"/>
						<path fill="#323C49" d="M1079.5,579c-2,0-3.5-1.6-3.5-3.5V416.1c0-13.1,10.7-23.7,23.7-23.7h84.2c2,0,3.5,1.6,3.5,3.5v159.4
							c0,2-1.6,3.5-3.5,3.5h-84.2c-9.2,0-16.7,7.5-16.7,16.7C1083.1,577.4,1081.5,579,1079.5,579z M1099.7,399.4
							c-9.2,0-16.7,7.5-16.7,16.7v142.5c4.3-4.2,10.2-6.9,16.7-6.9h80.7V399.4H1099.7z"/>
					</g>
					<g>
						<path fill="#323C49" d="M1170.5,423h-67.4c-2,0-3.5-1.6-3.5-3.5s1.6-3.5,3.5-3.5h67.4c2,0,3.5,1.6,3.5,3.5
							S1172.4,423,1170.5,423z"/>
					</g>
					<g>
						<path fill="#323C49" d="M1170.5,438.7h-67.4c-2,0-3.5-1.6-3.5-3.5c0-2,1.6-3.5,3.5-3.5h67.4c2,0,3.5,1.6,3.5,3.5
							C1174,437.1,1172.4,438.7,1170.5,438.7z"/>
					</g>
					<g>
						<path fill="#323C49" d="M1170.5,454.4h-67.4c-2,0-3.5-1.6-3.5-3.5c0-2,1.6-3.5,3.5-3.5h67.4c2,0,3.5,1.6,3.5,3.5
							C1174,452.8,1172.4,454.4,1170.5,454.4z"/>
					</g>
					<g>
						<path fill="#323C49" d="M1170.5,470.1h-67.4c-2,0-3.5-1.6-3.5-3.5c0-2,1.6-3.5,3.5-3.5h67.4c2,0,3.5,1.6,3.5,3.5
							C1174,468.5,1172.4,470.1,1170.5,470.1z"/>
					</g>
					<g>
						<path fill="#323C49" d="M1170.5,485.8h-67.4c-2,0-3.5-1.6-3.5-3.5s1.6-3.5,3.5-3.5h67.4c2,0,3.5,1.6,3.5,3.5
							S1172.4,485.8,1170.5,485.8z"/>
					</g>
					<g>
						<path fill="#323C49" d="M1170.5,501.6h-67.4c-2,0-3.5-1.6-3.5-3.5s1.6-3.5,3.5-3.5h67.4c2,0,3.5,1.6,3.5,3.5
							S1172.4,501.6,1170.5,501.6z"/>
					</g>
					<g>
						<path fill="#323C49" d="M1170.5,517.3h-67.4c-2,0-3.5-1.6-3.5-3.5c0-2,1.6-3.5,3.5-3.5h67.4c2,0,3.5,1.6,3.5,3.5
							C1174,515.7,1172.4,517.3,1170.5,517.3z"/>
					</g>
					<g>
						<path fill="#323C49" d="M1170.5,533h-67.4c-2,0-3.5-1.6-3.5-3.5s1.6-3.5,3.5-3.5h67.4c2,0,3.5,1.6,3.5,3.5
							S1172.4,533,1170.5,533z"/>
					</g>
				</g>
			</g>
		</g>
		<g>
			<g>
				<g>
					<path fill="#FDF59F" d="M951.9,691.1L951.9,691.1c-35.4,0-64,28.7-64,64v0c0,19.2,8.5,36.5,21.9,48.2
						c8.7,7.6,13.8,18.5,13.8,30l0,0c0,7.4,6,13.3,13.3,13.3h29.8c7.4,0,13.3-6,13.3-13.3v0c0-11.6,5.1-22.5,13.8-30
						c13.4-11.7,21.9-29,21.9-48.2v0C1015.9,719.8,987.2,691.1,951.9,691.1z"/>
					<path fill="#323C49" d="M966.8,850.3H937c-9.3,0-16.9-7.6-16.9-16.9c0-10.4-4.6-20.4-12.6-27.4c-14.7-12.8-23.2-31.4-23.2-50.9
						c0-37.2,30.3-67.5,67.5-67.5s67.5,30.3,67.5,67.5c0,19.5-8.4,38.1-23.2,50.9c-8,7-12.6,17-12.6,27.4
						C983.6,842.7,976.1,850.3,966.8,850.3z M951.9,694.6c-33.3,0-60.5,27.1-60.5,60.5c0,17.5,7.6,34.1,20.7,45.6
						c9.6,8.3,15,20.3,15,32.7c0,5.4,4.4,9.8,9.8,9.8h29.8c5.4,0,9.8-4.4,9.8-9.8c0-12.5,5.5-24.4,15-32.7
						c13.2-11.5,20.7-28.1,20.7-45.6C1012.3,721.8,985.2,694.6,951.9,694.6z"/>
				</g>
				<g>
					<path fill="#6D6E71" d="M926.2,856.4v28c0,7.2,5.8,13,13,13h25.5c7.2,0,13-5.8,13-13v-28H926.2z"/>
					<path fill="#323C49" d="M964.6,900.9h-25.5c-9.1,0-16.5-7.4-16.5-16.5v-28c0-2,1.6-3.5,3.5-3.5h51.4c2,0,3.5,1.6,3.5,3.5v28
						C981.1,893.5,973.7,900.9,964.6,900.9z M929.7,859.9v24.5c0,5.2,4.2,9.4,9.4,9.4h25.5c5.2,0,9.4-4.2,9.4-9.4v-24.5H929.7z"/>
				</g>
				<g>
					<path fill="#323C49" d="M942.6,848.5c-1.7,0-3.2-1.2-3.5-2.9l-17.3-92.3c-0.3-1.4,0.3-2.8,1.5-3.6c1.2-0.8,2.8-0.8,3.9,0.1
						l14.2,9.8l7.7-8.6c1.3-1.5,3.9-1.5,5.3,0l7.7,8.6l14.2-9.8c1.2-0.8,2.7-0.8,3.9-0.1c1.2,0.8,1.8,2.2,1.5,3.6l-17.3,92.3
						c-0.4,1.9-2.2,3.2-4.1,2.8c-1.9-0.4-3.2-2.2-2.8-4.1l15.7-83.9l-9.7,6.7c-1.5,1-3.5,0.8-4.6-0.6l-7.2-8l-7.2,8
						c-1.2,1.3-3.2,1.6-4.6,0.6l-9.7-6.7l15.7,83.9c0.4,1.9-0.9,3.8-2.8,4.1C943.1,848.5,942.9,848.5,942.6,848.5z"/>
				</g>
				<g>
					<path fill="#323C49" d="M951.9,683.3c-2,0-3.5-1.6-3.5-3.5v-34c0-2,1.6-3.5,3.5-3.5s3.5,1.6,3.5,3.5v34
						C955.4,681.7,953.8,683.3,951.9,683.3z"/>
				</g>
				<g>
					<path fill="#323C49" d="M1005.8,705.7c-0.9,0-1.8-0.3-2.5-1c-1.4-1.4-1.4-3.6,0-5l24-24c1.4-1.4,3.6-1.4,5,0
						c1.4,1.4,1.4,3.6,0,5l-24,24C1007.6,705.3,1006.7,705.7,1005.8,705.7z"/>
				</g>
				<g>
					<path fill="#323C49" d="M1062.2,759.6h-34c-2,0-3.5-1.6-3.5-3.5s1.6-3.5,3.5-3.5h34c2,0,3.5,1.6,3.5,3.5
						S1064.1,759.6,1062.2,759.6z"/>
				</g>
				<g>
					<path fill="#323C49" d="M1029.9,837.6c-0.9,0-1.8-0.3-2.5-1l-24-24c-1.4-1.4-1.4-3.6,0-5c1.4-1.4,3.6-1.4,5,0l24,24
						c1.4,1.4,1.4,3.6,0,5C1031.7,837.3,1030.8,837.6,1029.9,837.6z"/>
				</g>
				<g>
					<path fill="#323C49" d="M897.9,705.7c-0.9,0-1.8-0.3-2.5-1l-24-24c-1.4-1.4-1.4-3.6,0-5c1.4-1.4,3.6-1.4,5,0l24,24
						c1.4,1.4,1.4,3.6,0,5C899.7,705.3,898.8,705.7,897.9,705.7z"/>
				</g>
				<g>
					<path fill="#323C49" d="M875.6,759.6h-34c-2,0-3.5-1.6-3.5-3.5s1.6-3.5,3.5-3.5h34c2,0,3.5,1.6,3.5,3.5
						S877.5,759.6,875.6,759.6z"/>
				</g>
				<g>
					<path fill="#323C49" d="M873.9,837.6c-0.9,0-1.8-0.3-2.5-1c-1.4-1.4-1.4-3.6,0-5l24-24c1.4-1.4,3.6-1.4,5,0
						c1.4,1.4,1.4,3.6,0,5l-24,24C875.7,837.3,874.8,837.6,873.9,837.6z"/>
				</g>
			</g>
			<g>
				<g>
					<g>
						<path fill="#EF4136" d="M513.6,757.5c-7.3-29.1-50.9-46.6-87.3-17.5c-36.4-29.1-80.1-11.6-87.3,17.5S360.7,855,384,868.1
							c23.3,13.1,42.2-11.6,42.2-11.6s18.9,24.7,42.2,11.6C491.7,855,520.9,786.6,513.6,757.5z"/>
						<path fill="#323C49" d="M454.5,875.5C454.5,875.5,454.5,875.5,454.5,875.5c-13.3,0-23.6-8.8-28.3-13.7
							c-4.7,4.9-15,13.7-28.3,13.7c-5.3,0-10.6-1.4-15.6-4.3c-25.4-14.3-54.2-84.9-46.8-114.6c5.1-20.3,26.3-35.1,50.5-35.1
							c14.1,0,27.9,4.8,40.3,14c12.3-9.2,26.2-14,40.3-14c24.2,0,45.4,14.8,50.5,35.1c7.4,29.6-21.5,100.3-46.8,114.6
							C465.1,874,459.9,875.5,454.5,875.5z M426.2,852.9c1.1,0,2.1,0.5,2.8,1.4c0.1,0.1,11,14.1,25.5,14.1c0,0,0,0,0,0
							c4.1,0,8.2-1.1,12.2-3.4c23-12.9,50.2-79.7,43.4-106.7c-4.3-17.2-22.7-29.8-43.7-29.8c-13.3,0-26.4,4.9-38.1,14.2
							c-1.3,1-3.1,1-4.4,0c-11.6-9.3-24.8-14.2-38.1-14.2c-21,0-39.3,12.5-43.7,29.8c-6.7,27,20.5,93.8,43.4,106.7
							c4,2.2,8.1,3.4,12.2,3.4c14.6,0,25.4-13.9,25.5-14.1C424.1,853.4,425.1,852.9,426.2,852.9z"/>
					</g>
					<g>
						<path fill="#323C49" d="M436.2,722.4C436.2,722.4,436.2,722.4,436.2,722.4c-2.1,0-4.2-0.1-6.4-0.4c-1.6-0.2-2.9-1.5-3.1-3.1
							c-1.5-12.8,1.4-23.7,8.6-32.3c14.4-17.2,40.9-19,42-19c1,0,2,0.3,2.7,1c0.7,0.7,1.1,1.7,1,2.7
							C481.1,671.9,477.6,722.4,436.2,722.4z M433.5,715.3c0.9,0.1,1.8,0.1,2.7,0.1c28.8,0,35.8-29,37.4-40.1
							c-7.6,1.2-23.5,4.9-32.8,16C435.4,697.7,432.9,705.8,433.5,715.3z"/>
					</g>
				</g>
				<g>
					<path fill="#323C49" d="M426.2,743.5c-0.1,0-0.2,0-0.4,0c-1.9-0.2-3.4-1.9-3.2-3.9l0,0c0.2-1.9,4-46.4-42.3-60.6
						c-1.9-0.6-2.9-2.5-2.3-4.4c0.6-1.9,2.5-2.9,4.4-2.3c51.9,15.9,47.3,67.5,47.2,68.1C429.6,742.2,428,743.5,426.2,743.5z"/>
				</g>
			</g>
		</g>
	</g>
	<g opacity="0.2">
		<g>
			<path fill="#FFFFFF" d="M254.7,165.4l-38.7,0L174,189L154,222c-3.2,5.3-3.4,12-0.3,17.4l7.4,13.1l58.1-32.6l58.1-32.6l-7.4-13.1
				C266.7,168.8,261,165.4,254.7,165.4z"/>
			<path fill="#4B5A70" d="M278.3,189.4l-116.1,65.2c-1.2,0.6-2.6,0.2-3.3-0.9l-7.4-13.1c-3.5-6.2-3.3-13.8,0.3-19.8l20.1-33
				c0.2-0.4,0.5-0.6,0.9-0.8l42-23.6c0.4-0.2,0.8-0.3,1.2-0.3l38.7,0c7.1,0,13.6,3.8,17.1,10l7.4,13.1
				C279.9,187.3,279.5,188.7,278.3,189.4z M161.9,249.3l111.9-62.9l-6.2-11c-2.6-4.7-7.6-7.6-12.9-7.6l-38,0l-40.9,23L156,223.3
				c-2.8,4.6-2.9,10.3-0.3,15L161.9,249.3z"/>
		</g>
		<g>
			<polygon fill="#FFFFFF" points="174,189 159.8,212.5 213,209.1 243.6,165.4 216.1,165.4 			"/>
			<path fill="#4B5A70" d="M214.2,211.2c-0.3,0.2-0.7,0.3-1,0.3l-53.2,3.4c-0.9,0.1-1.7-0.4-2.2-1.2c-0.5-0.8-0.5-1.7,0-2.5
				l14.3-23.5c0.2-0.4,0.5-0.6,0.9-0.8l42-23.6c0.4-0.2,0.8-0.3,1.2-0.3l27.5,0c0.9,0,1.7,0.5,2.1,1.3c0.4,0.8,0.4,1.7-0.2,2.5
				L215,210.5C214.7,210.8,214.5,211,214.2,211.2z M164.2,209.8l47.5-3l27.3-39l-22.3,0l-40.9,23L164.2,209.8z"/>
		</g>
		<g>
			<path fill="#FFFFFF" d="M175.7,181.9l4.8,8.5c5.2,9.2,16.9,12.5,26.1,7.3c9.2-5.2,12.5-16.9,7.3-26.1l-4.8-8.5L175.7,181.9z"/>
			<path fill="#4B5A70" d="M207.8,199.8c-10.4,5.8-23.5,2.1-29.4-8.2l-4.8-8.5c-0.6-1.2-0.2-2.6,0.9-3.3L208,161
				c1.2-0.6,2.6-0.2,3.3,0.9l4.8,8.5C221.8,180.8,218.2,194,207.8,199.8z M179,182.8l3.6,6.4c4.5,8.1,14.8,10.9,22.8,6.4
				c8.1-4.5,10.9-14.8,6.4-22.8l-3.6-6.4L179,182.8z"/>
		</g>
		<g>
			<g>
				<path fill="#FFFFFF" d="M131.2,141.2l16.9,30.1c10.3,18.3,33.5,24.8,51.8,14.5l0,0c18.3-10.3,24.8-33.5,14.5-51.8l-16.9-30.1
					L131.2,141.2z"/>
				<path fill="#4B5A70" d="M201.1,188c-19.5,10.9-44.2,4-55.1-15.5l-16.9-30.1c-0.6-1.2-0.2-2.6,0.9-3.3l66.4-37.3
					c1.2-0.6,2.6-0.2,3.3,0.9l16.9,30.1C227.5,152.3,220.6,177,201.1,188z M134.4,142.1l15.7,28c9.6,17.1,31.4,23.3,48.6,13.6
					c17.1-9.6,23.3-31.4,13.6-48.6l-15.7-28L134.4,142.1z"/>
			</g>
			<g>
				<g>
					<polygon fill="#FFFFFF" points="116.8,113.4 149,95.3 171.3,134.9 130.5,147.5 					"/>
					<path fill="#4B5A70" d="M172.5,137c-0.1,0.1-0.3,0.1-0.5,0.2l-40.8,12.6c-1.2,0.4-2.5-0.2-2.9-1.4l-13.7-34.1
						c-0.4-1.1,0-2.4,1-3l32.2-18.1c1.2-0.6,2.6-0.2,3.3,0.9l22.3,39.6c0.4,0.6,0.4,1.4,0.1,2.1C173.3,136.3,172.9,136.7,172.5,137z
						 M131.9,144.6l35.8-11.1l-19.6-34.9l-28.3,15.9L131.9,144.6z"/>
				</g>
				<g>
					<polygon fill="#FFFFFF" points="181.3,77.2 149,95.3 171.3,134.9 203.3,106.6 					"/>
					<path fill="#4B5A70" d="M172.5,137c-0.5,0.3-1,0.4-1.6,0.3c-0.7-0.1-1.3-0.6-1.7-1.2l-22.3-39.6c-0.6-1.2-0.2-2.6,0.9-3.3
						l32.2-18.1c1-0.6,2.4-0.3,3.1,0.7l22,29.5c0.7,1,0.6,2.4-0.3,3.2l-32,28.3C172.8,136.8,172.6,136.9,172.5,137z M152.3,96.2
						l19.6,34.9l28.1-24.8l-19.4-26L152.3,96.2z"/>
				</g>
			</g>
			<g>
				<path fill="#FFFFFF" d="M211.4,50.1L78,125c-2.1,1.2-2.8,3.8-1.7,5.9c1.2,2.1,3.8,2.8,5.9,1.7l133.5-75c2.1-1.2,2.8-3.8,1.7-5.9
					C216.2,49.6,213.5,48.9,211.4,50.1z"/>
				<path fill="#4B5A70" d="M216.8,59.7l-133.5,75c-3.2,1.8-7.3,0.7-9.2-2.6c-1.8-3.2-0.7-7.3,2.6-9.2l133.5-75
					c3.2-1.8,7.3-0.7,9.2,2.6C221.2,53.8,220.1,57.9,216.8,59.7z M79.1,127.1c-0.9,0.5-1.3,1.7-0.7,2.6c0.5,0.9,1.7,1.3,2.6,0.7
					l133.5-75c0.9-0.5,1.3-1.7,0.7-2.6c-0.5-0.9-1.7-1.3-2.6-0.7L79.1,127.1z"/>
			</g>
			<g>
				<path fill="#4B5A70" d="M234.8,123.4c-1.2,0.6-2.6,0.2-3.3-0.9l-35.2-62.6c-0.6-1.2-0.2-2.6,0.9-3.3c1.2-0.6,2.6-0.2,3.3,0.9
					l35.2,62.6C236.4,121.3,235.9,122.8,234.8,123.4z"/>
			</g>
		</g>
	</g>
	<g opacity="0.2">
		<g>
			<path fill="#FFFFFF" d="M1322,740.6l-29.3-25.3l-47.3-9.6l-36.8,11.9c-5.9,1.9-10.4,6.9-11.6,13l-3,14.7l65.3,13.2l65.3,13.2
				l3-14.7C1328.9,751,1326.7,744.7,1322,740.6z"/>
			<path fill="#4B5A70" d="M1324.2,774.2l-130.5-26.4c-1.3-0.3-2.1-1.5-1.9-2.8l3-14.7c1.4-6.9,6.5-12.6,13.2-14.8l36.8-11.9
				c0.4-0.1,0.8-0.2,1.2-0.1l47.3,9.6c0.4,0.1,0.8,0.3,1.1,0.5l29.3,25.3c5.4,4.6,7.8,11.8,6.4,18.8l-3,14.7
				C1326.8,773.6,1325.5,774.4,1324.2,774.2z M1196.9,743.5l125.8,25.5l2.5-12.4c1.1-5.3-0.8-10.7-4.9-14.2l-28.8-24.9l-46-9.3
				l-36.2,11.7c-5.1,1.7-8.9,5.9-10,11.2L1196.9,743.5z"/>
		</g>
		<g>
			<polygon fill="#FFFFFF" points="1245.5,705.8 1219.3,714.3 1261.9,746.4 1313.6,733.3 1292.7,715.4 			"/>
			<path fill="#4B5A70" d="M1261.4,748.8c-0.3-0.1-0.7-0.2-1-0.4l-42.5-32.2c-0.7-0.5-1.1-1.4-0.9-2.3c0.1-0.9,0.8-1.6,1.6-1.9
				l26.2-8.5c0.4-0.1,0.8-0.2,1.2-0.1l47.3,9.6c0.4,0.1,0.8,0.3,1.1,0.5l20.8,18c0.7,0.6,1,1.5,0.8,2.4c-0.2,0.9-0.9,1.6-1.7,1.8
				l-51.7,13.1C1262.1,748.9,1261.7,748.9,1261.4,748.8z M1224.4,715.1l37.9,28.7l46.1-11.7l-16.9-14.6l-46-9.3L1224.4,715.1z"/>
		</g>
		<g>
			<path fill="#FFFFFF" d="M1251.4,701.5l-1.9,9.6c-2.1,10.4,4.6,20.5,15,22.6c10.4,2.1,20.5-4.6,22.6-15l1.9-9.6L1251.4,701.5z"/>
			<path fill="#4B5A70" d="M1264,736c-11.7-2.4-19.2-13.8-16.9-25.4l1.9-9.6c0.3-1.3,1.5-2.1,2.8-1.9l37.6,7.6
				c1.3,0.3,2.1,1.5,1.9,2.8l-1.9,9.6C1287,730.8,1275.6,738.4,1264,736z M1253.3,704.3l-1.5,7.2c-1.8,9.1,4,17.9,13.1,19.8
				c9.1,1.8,17.9-4,19.8-13.1l1.5-7.2L1253.3,704.3z"/>
		</g>
		<g>
			<g>
				<path fill="#FFFFFF" d="M1244.2,641.6l-6.9,33.9c-4.2,20.6,9.2,40.7,29.8,44.9h0c20.6,4.2,40.7-9.2,44.9-29.8l6.9-33.9
					L1244.2,641.6z"/>
				<path fill="#4B5A70" d="M1266.7,722.7c-21.9-4.4-36.1-25.8-31.6-47.7l6.9-33.9c0.3-1.3,1.5-2.1,2.8-1.9l74.6,15.1
					c1.3,0.3,2.1,1.5,1.9,2.8l-6.9,33.9C1309.9,712.9,1288.5,727.1,1266.7,722.7z M1246.1,644.4l-6.4,31.5
					c-3.9,19.3,8.6,38.1,27.9,42c19.3,3.9,38.1-8.6,42-27.9l6.4-31.5L1246.1,644.4z"/>
			</g>
			<g>
				<g>
					<polygon fill="#FFFFFF" points="1251.5,611.1 1287.8,618.5 1278.7,663 1239.6,645.9 					"/>
					<path fill="#4B5A70" d="M1278.3,665.4c-0.2,0-0.3-0.1-0.5-0.2l-39.1-17.1c-1.1-0.5-1.7-1.8-1.3-3l11.9-34.8
						c0.4-1.1,1.6-1.8,2.7-1.6l36.2,7.3c1.3,0.3,2.1,1.5,1.9,2.8l-9,44.5c-0.1,0.7-0.6,1.3-1.2,1.6
						C1279.4,665.4,1278.8,665.5,1278.3,665.4z M1242.6,644.6l34.4,15l8-39.3l-31.8-6.4L1242.6,644.6z"/>
				</g>
				<g>
					<polygon fill="#FFFFFF" points="1324,625.8 1287.8,618.5 1278.7,663 1321.4,662.5 					"/>
					<path fill="#4B5A70" d="M1278.3,665.4c-0.5-0.1-1-0.4-1.4-0.8c-0.5-0.6-0.6-1.3-0.5-2l9-44.5c0.3-1.3,1.5-2.1,2.8-1.9l36.2,7.3
						c1.2,0.2,2,1.3,1.9,2.5l-2.6,36.7c-0.1,1.2-1.1,2.2-2.4,2.2l-42.7,0.5C1278.6,665.4,1278.4,665.4,1278.3,665.4z M1289.6,621.3
						l-8,39.3l37.5-0.5l2.3-32.4L1289.6,621.3z"/>
				</g>
			</g>
			<g>
				<path fill="#FFFFFF" d="M1364.5,625l-150-30.4c-2.3-0.5-4.6,1-5.1,3.4c-0.5,2.3,1,4.6,3.4,5.1l150,30.4c2.3,0.5,4.6-1,5.1-3.4
					C1368.4,627.7,1366.9,625.5,1364.5,625z"/>
				<path fill="#4B5A70" d="M1362.3,635.8l-150-30.4c-3.6-0.7-6-4.3-5.3-7.9s4.3-6,7.9-5.3l150,30.4c3.6,0.7,6,4.3,5.3,7.9
					S1366,636.6,1362.3,635.8z M1214,597c-1-0.2-2.1,0.5-2.3,1.5c-0.2,1,0.5,2.1,1.5,2.3l150,30.4c1,0.2,2.1-0.5,2.3-1.5
					s-0.5-2.1-1.5-2.3L1214,597z"/>
			</g>
			<g>
				<path fill="#4B5A70" d="M1334.3,695.8c-1.3-0.3-2.1-1.5-1.9-2.8l14.2-70.4c0.3-1.3,1.5-2.1,2.8-1.9c1.3,0.3,2.1,1.5,1.9,2.8
					l-14.2,70.4C1336.9,695.2,1335.6,696,1334.3,695.8z"/>
			</g>
		</g>
	</g>
	<g opacity="0.2">
		<g>
			<g>
				<path fill="#FFFBD2" d="M1252.8,167.3c-4.6-6.4-4.3-14.8,0-20.8l-0.5-0.7l-72.5,52.4c-7.9,5.7-9.7,16.8-4,24.7
					c5.7,7.9,16.8,9.7,24.7,4l72.5-52.4l-0.5-0.7C1265.4,176,1257.4,173.6,1252.8,167.3z"/>
				<path fill="#4B5A70" d="M1274.5,176.4l-72.5,52.4c-9,6.5-21.6,4.5-28.1-4.5c-6.5-9-4.5-21.6,4.5-28.1l72.5-52.4
					c1.1-0.8,2.6-0.5,3.3,0.5l0.5,0.7c0.6,0.8,0.6,2,0,2.8c-3.9,5.4-3.9,12.6,0,18c3.9,5.4,10.7,7.6,17.1,5.6c1-0.3,2.1,0,2.7,0.9
					l0.5,0.7C1275.8,174.2,1275.5,175.7,1274.5,176.4z M1181.2,200.1c-6.8,4.9-8.4,14.5-3.4,21.4c4.9,6.8,14.5,8.4,21.4,3.4l66.5-48
					c-5.8-0.5-11.2-3.4-14.7-8.3c-3.5-4.9-4.6-11-3.2-16.6L1181.2,200.1z"/>
			</g>
			<g>
				<g>
					<path fill="#FFFFFF" d="M1110.1,101.7c-7.9,5.7-9.7,16.8-4,24.7l69.7,96.5c-5.7-7.9-3.9-19,4-24.7l72.5-52.4l-69.7-96.5
						L1110.1,101.7z"/>
					<path fill="#4B5A70" d="M1177.2,224.8c-1.1,0.8-2.6,0.5-3.3-0.5l-69.7-96.5c-6.5-9-4.5-21.6,4.5-28.1l72.5-52.4
						c1.1-0.8,2.6-0.5,3.3,0.5l69.7,96.5c0.8,1.1,0.5,2.6-0.5,3.3l-72.5,52.4c-6.8,4.9-8.4,14.5-3.4,21.4
						C1178.5,222.6,1178.3,224.1,1177.2,224.8z M1111.5,103.6c-6.8,4.9-8.4,14.5-3.4,21.4l62.1,85.9c0.5-5.7,3.3-11.1,8.3-14.7
						l70.6-51l-66.9-92.6L1111.5,103.6z"/>
				</g>
			</g>
			<g>
				<g>
					<path fill="#FFFFFF" d="M1110.9,101.1l-0.9,0.6c-7.9,5.7-9.7,16.8-4,24.7l69.7,96.5c-5.7-7.9-3.9-19,4-24.7l0.9-0.6
						L1110.9,101.1z"/>
					<path fill="#4B5A70" d="M1177.2,224.8c-1.1,0.8-2.6,0.5-3.3-0.5l-69.7-96.5c-6.5-9-4.5-21.6,4.5-28.1l0.9-0.6
						c1.1-0.8,2.6-0.5,3.3,0.5l69.7,96.5c0.8,1.1,0.5,2.6-0.5,3.3l-0.9,0.6c-6.8,4.9-8.4,14.5-3.4,21.4
						C1178.5,222.6,1178.3,224.1,1177.2,224.8z M1110.4,104.5c-5.9,5.1-7.1,14.1-2.4,20.6l62.1,85.9c0.4-5.3,2.9-10.3,7.2-13.9
						L1110.4,104.5z"/>
				</g>
			</g>
			<g>
				<path fill="#FFFBD2" d="M1169.3,83.2l-23.1,16.7c-4.5,3.2-5.5,9.5-2.2,14l3.9,5.4c3.2,4.5,9.5,5.5,14,2.2l23.1-16.7
					c4.5-3.2,5.5-9.5,2.2-14l-3.9-5.4C1180.1,80.9,1173.8,79.9,1169.3,83.2z"/>
				<path fill="#4B5A70" d="M1186.4,106.7l-23.1,16.7c-5.5,4-13.3,2.7-17.3-2.8l-3.9-5.4c-4-5.5-2.7-13.3,2.8-17.3l23.1-16.7
					c5.5-4,13.3-2.7,17.3,2.8l3.9,5.4C1193.1,94.9,1191.9,102.7,1186.4,106.7z M1147.7,101.8c-3.4,2.5-4.2,7.2-1.7,10.6l3.9,5.4
					c2.5,3.4,7.2,4.2,10.6,1.7l23.1-16.7c3.4-2.5,4.2-7.2,1.7-10.6l-3.9-5.4c-2.5-3.4-7.2-4.2-10.6-1.7L1147.7,101.8z"/>
			</g>
		</g>
		<g>
			<polygon fill="#FFFFFF" points="1196.7,207 1190.8,211.3 1204.8,230.6 1206.5,220.6 1216.6,222.2 1202.5,202.8 			"/>
			<path fill="#4B5A70" d="M1218,224.1c-0.5,0.4-1.1,0.5-1.8,0.4l-7.7-1.2l-1.2,7.7c-0.2,1-0.9,1.7-1.8,1.9
				c-0.9,0.2-1.9-0.1-2.5-0.9l-14-19.4c-0.8-1.1-0.5-2.6,0.5-3.3l11.7-8.5c1.1-0.8,2.6-0.5,3.3,0.5l14,19.4c0.6,0.8,0.6,1.8,0.1,2.7
				C1218.4,223.7,1218.2,223.9,1218,224.1z M1205.1,218.6c0.5-0.4,1.1-0.5,1.8-0.4l4.4,0.7l-9.2-12.8l-7.8,5.7l9.2,12.8l0.7-4.4
				C1204.2,219.5,1204.6,219,1205.1,218.6z"/>
		</g>
	</g>
	<g opacity="0.2">
		<g>
			<g>
				<path fill="#FFFBD2" d="M142.2,577.6c-5.8-2.8-12.8-0.6-16,4.9l-0.2,0.4l-26.2,54.2l-26.4,54.6l-20.6-10
					c-2.2,5.7,0,12.1,5.3,15.2l0,0l78.2,37.9c-0.1-0.1-0.2-0.1-0.3-0.2c5.8,2.6,12.5,0.4,15.7-5l0.2-0.4l26.2-54.2l31.3-64.7
					L142.2,577.6z"/>
				<path fill="#4B5A70" d="M135.1,736.9L56.9,699c-0.2-0.1-0.4-0.2-0.6-0.4c-5.9-3.7-8.4-11.3-5.9-17.8c0.2-0.6,0.7-1.1,1.4-1.4
					c0.6-0.2,1.3-0.2,1.9,0.1l18.4,8.9l51.8-107c0-0.1,0.1-0.1,0.1-0.2c3.8-6.6,12.3-9.2,19.1-5.8l67.1,32.7c1.2,0.6,1.7,2,1.1,3.2
					l-57.7,119.3c0,0.1-0.1,0.1-0.1,0.2c-3.6,6.3-11.2,8.9-17.9,6.4C135.5,737,135.3,737,135.1,736.9L135.1,736.9
					C135.1,736.9,135.1,736.9,135.1,736.9C135.1,736.9,135.1,736.9,135.1,736.9z M59.4,694.9l77.2,37.4c0.1,0,0.1,0,0.2,0.1
					c4.6,2.1,10,0.4,12.6-4l56.7-117l-64.9-31.6c-4.6-2.2-10.3-0.5-12.9,3.9L75.5,692.7c-0.6,1.2-2,1.7-3.2,1.1l-18-8.7
					c-0.4,3.8,1.4,7.7,4.9,9.7C59.3,694.8,59.3,694.9,59.4,694.9z"/>
			</g>
			<g>
				<path fill="#4B5A70" d="M57.1,699.1l-0.2-0.1c-1.2-0.6-1.7-2-1.1-3.2c0.6-1.2,2-1.7,3.2-1.1l0.2,0.1c4.4,2.1,9.8,0.3,11.9-4.1
					c0.6-1.2,2-1.7,3.2-1.1c1.2,0.6,1.7,2,1.1,3.2C72.2,699.5,63.9,702.3,57.1,699.1z"/>
			</g>
			<g>
				<path fill="#FFFBD2" d="M147.6,592.9l77.3,37.4c2.2-5.7,0-12.1-5.3-15.2l0,0l-78.2-37.9C147.4,580.1,149.9,586.9,147.6,592.9z"
					/>
				<path fill="#4B5A70" d="M223.9,632.5L146.6,595c-1.1-0.5-1.6-1.9-1.2-3c1.9-4.8-0.3-10.3-4.9-12.6c-1.2-0.6-1.7-2-1.1-3.2
					c0.6-1.2,2-1.7,3.2-1.1l78.2,37.9c0.2,0.1,0.4,0.2,0.6,0.4c5.9,3.7,8.4,11.3,5.9,17.8c-0.2,0.6-0.7,1.1-1.4,1.4
					C225.2,632.8,224.5,632.8,223.9,632.5z M150.5,591.6l72.8,35.3c0.4-3.8-1.4-7.7-4.9-9.7c-0.1-0.1-0.2-0.1-0.2-0.2l-68-32.9
					C150.9,586.5,151.1,589.1,150.5,591.6z"/>
			</g>
		</g>
		<g>
			<path fill="#4B5A70" d="M186.4,631.9L127,603.1c-1.2-0.6-1.7-2-1.1-3.2c0.6-1.2,2-1.7,3.2-1.1l59.4,28.8c1.2,0.6,1.7,2,1.1,3.2
				C189,631.9,187.6,632.4,186.4,631.9z"/>
		</g>
		<g>
			<path fill="#4B5A70" d="M181.1,642.9l-59.4-28.8c-1.2-0.6-1.7-2-1.1-3.2c0.6-1.2,2-1.7,3.2-1.1l59.4,28.8c1.2,0.6,1.7,2,1.1,3.2
				C183.7,643,182.2,643.5,181.1,642.9z"/>
		</g>
		<g>
			<path fill="#4B5A70" d="M175.7,653.9l-59.4-28.8c-1.2-0.6-1.7-2-1.1-3.2c0.6-1.2,2-1.7,3.2-1.1l59.4,28.8c1.2,0.6,1.7,2,1.1,3.2
				C178.3,654,176.9,654.5,175.7,653.9z"/>
		</g>
		<g>
			<path fill="#4B5A70" d="M170.4,665L111,636.2c-1.2-0.6-1.7-2-1.1-3.2s2-1.7,3.2-1.1l59.4,28.8c1.2,0.6,1.7,2,1.1,3.2
				S171.6,665.5,170.4,665z"/>
		</g>
		<g>
			<path fill="#4B5A70" d="M165,676l-59.4-28.8c-1.2-0.6-1.7-2-1.1-3.2c0.6-1.2,2-1.7,3.2-1.1l59.4,28.8c1.2,0.6,1.7,2,1.1,3.2
				C167.6,676.1,166.2,676.6,165,676z"/>
		</g>
		<g>
			<path fill="#4B5A70" d="M157.1,696.1l-18.6-9c-1.2-0.6-1.7-2-1.1-3.2c0.6-1.2,2-1.7,3.2-1.1l18.6,9c1.2,0.6,1.7,2,1.1,3.2
				C159.8,696.2,158.3,696.7,157.1,696.1z"/>
		</g>
		<g>
			<path fill="#4B5A70" d="M151,708.7l-18.6-9c-1.2-0.6-1.7-2-1.1-3.2c0.6-1.2,2-1.7,3.2-1.1l18.6,9c1.2,0.6,1.7,2,1.1,3.2
				C153.7,708.8,152.2,709.3,151,708.7z"/>
		</g>
	</g>
	<g opacity="0.2">
		<g>
			<path fill="#FFFFFF" d="M270.1,863.6l-143,38l-25.5-96c-0.5-1.9,0.6-3.9,2.6-4.4L240.2,765c1.9-0.5,3.9,0.6,4.4,2.6L270.1,863.6z
				"/>
			<path fill="#4B5A70" d="M270.7,865.9l-143,38c-1.3,0.3-2.6-0.4-2.9-1.7l-25-94c-1.2-4.3,1.4-8.8,5.8-10l131.9-35
				c4.3-1.2,8.8,1.4,10,5.8l25,94C272.8,864.3,272,865.6,270.7,865.9z M128.8,898.7l138.4-36.8l-24.3-91.6c-0.5-1.8-2.3-2.9-4.1-2.4
				l-131.9,35c-1.8,0.5-2.9,2.3-2.4,4.1L128.8,898.7z"/>
		</g>
		<g>
			
				<rect x="144.4" y="766" transform="matrix(0.2567 0.9665 -0.9665 0.2567 943.6071 440.2658)" fill="#FFFFFF" width="82.2" height="135.2"/>
			<path fill="#4B5A70" d="M262.1,858.3L131.4,893c-1.3,0.3-2.6-0.4-2.9-1.7l-21.1-79.5c-0.3-1.3,0.4-2.6,1.7-2.9l130.7-34.7
				c1.3-0.3,2.6,0.4,2.9,1.7l21.1,79.5C264.1,856.7,263.4,858,262.1,858.3z M132.5,887.8l126.1-33.5l-19.9-74.8l-126.1,33.5
				L132.5,887.8z"/>
		</g>
		<g>
			
				<rect x="107.8" y="881.8" transform="matrix(0.9665 -0.2567 0.2567 0.9665 -220.8715 80.9459)" fill="#FFFFFF" width="183.6" height="9.3"/>
			<path fill="#4B5A70" d="M290.1,869.6l-177.4,47.1c-1.3,0.3-2.6-0.4-2.9-1.7l-2.4-8.9c-0.3-1.3,0.4-2.6,1.7-2.9L286.5,856
				c1.3-0.3,2.6,0.4,2.9,1.7l2.4,8.9C292.1,868,291.4,869.3,290.1,869.6z M113.8,911.5l172.8-45.9l-1.1-4.3l-172.8,45.9L113.8,911.5
				z"/>
		</g>
	</g>
	<g opacity="0.2">
		<g>
			
				<rect x="41" y="336.9" transform="matrix(0.9385 0.3453 -0.3453 0.9385 143.8618 -17.115)" fill="#FFFFFF" width="158" height="116.8"/>
			<path fill="#4B5A70" d="M173.1,479.6L24.9,425.1c-1.2-0.5-1.9-1.8-1.4-3.1l40.3-109.6c0.5-1.2,1.8-1.9,3.1-1.4l148.3,54.5
				c1.2,0.5,1.9,1.8,1.4,3.1l-40.3,109.6C175.7,479.5,174.3,480.1,173.1,479.6z M28.8,421.4l143.8,52.9l38.7-105.1L67.4,316.3
				L28.8,421.4z"/>
		</g>
		<g>
			
				<rect x="42.7" y="332.2" transform="matrix(0.9385 0.3453 -0.3453 0.9385 142.3601 -17.9924)" fill="#FFFFFF" width="158" height="116.8"/>
			<path fill="#4B5A70" d="M174.8,475L26.6,420.4c-1.2-0.5-1.9-1.8-1.4-3.1l40.3-109.6c0.5-1.2,1.8-1.9,3.1-1.4l148.3,54.5
				c1.2,0.5,1.9,1.8,1.4,3.1l-40.3,109.6C177.4,474.8,176.1,475.4,174.8,475z M30.5,416.8l143.8,52.9l38.7-105.1L69.2,311.6
				L30.5,416.8z"/>
		</g>
		<g>
			<path fill="#FFFBD2" d="M125.3,380.8L125.3,380.8c1.7-4.5-2.7-10.3-9.8-12.9l-53.5-19.7l-23.7,64.4l53.5,19.7
				c7.1,2.6,11.5,8.4,9.8,12.9l0,0L125.3,380.8z"/>
			<path fill="#4B5A70" d="M100.8,447.4c-1.2-0.5-1.9-1.8-1.4-3.1c1-2.8-2.2-7.5-8.4-9.8l-53.5-19.7c-1.2-0.5-1.9-1.8-1.4-3.1
				l23.7-64.4c0.5-1.2,1.8-1.9,3.1-1.4l53.5,19.7c8.5,3.1,13.4,10.1,11.3,16L103.9,446C103.4,447.3,102,447.9,100.8,447.4z
				 M41.3,411.2l51.3,18.9c4.2,1.5,7.5,4,9.5,6.8l20.9-56.9c1-2.8-2.2-7.5-8.4-9.8l-51.3-18.9L41.3,411.2z"/>
		</g>
		<g>
			<path fill="#FFFFFF" d="M125.3,380.8L125.3,380.8c1.7-4.5,8.8-6,15.8-3.4l53.5,19.7L171,461.5l-53.5-19.7
				c-7.1-2.6-14.2-1.1-15.8,3.4l0,0L125.3,380.8z"/>
			<path fill="#4B5A70" d="M100.8,447.4c-1.2-0.5-1.9-1.8-1.4-3.1l23.7-64.4c2.1-5.8,10.5-8,18.9-4.9l53.5,19.7
				c1.2,0.5,1.9,1.8,1.4,3.1l-23.7,64.4c-0.5,1.2-1.8,1.9-3.1,1.4L116.6,444c-6.2-2.3-11.7-0.8-12.8,2
				C103.4,447.3,102,447.9,100.8,447.4z M140.3,379.6c-6.2-2.3-11.7-0.8-12.8,2l-20.9,56.9c3.4-0.8,7.5-0.6,11.7,1l51.3,18.9
				l22-59.9L140.3,379.6z"/>
		</g>
		<g>
			<g>
				<g>
					<path fill="#FFFBD2" d="M139.1,343.3L139.1,343.3c2.6-7.1-1-15-8.1-17.6L77.5,306L40.2,407.3L93.7,427
						c7.1,2.6,10.7,10.5,8.1,17.6h0L139.1,343.3z"/>
					<path fill="#4B5A70" d="M101,446.9c-1.2-0.5-1.9-1.8-1.4-3.1c2.2-5.8-0.9-12.3-6.7-14.5l-53.5-19.7c-1.2-0.5-1.9-1.8-1.4-3.1
						l37.3-101.4c0.5-1.2,1.8-1.9,3.1-1.4l53.5,19.7c8.3,3.1,12.6,12.3,9.5,20.6l-37.3,101.4C103.6,446.7,102.3,447.3,101,446.9z
						 M43.3,405.9l51.3,18.9c4.1,1.5,7.3,4.6,9,8.3l33.3-90.6c2.2-5.8-0.9-12.3-6.7-14.5l-51.3-18.9L43.3,405.9z"/>
				</g>
				<g>
					<path fill="#4B5A70" d="M122.5,342.1l-42.8-15.8c-1.2-0.5-1.9-1.8-1.4-3.1c0.5-1.2,1.8-1.9,3.1-1.4l42.8,15.8
						c1.2,0.5,1.9,1.8,1.4,3.1C125.1,342,123.8,342.6,122.5,342.1z"/>
				</g>
				<g>
					<path fill="#4B5A70" d="M118.8,352.1L76,336.4c-1.2-0.5-1.9-1.8-1.4-3.1c0.5-1.2,1.8-1.9,3.1-1.4l42.8,15.8
						c1.2,0.5,1.9,1.8,1.4,3.1S120.1,352.6,118.8,352.1z"/>
				</g>
				<g>
					<path fill="#4B5A70" d="M115.2,362.1l-42.8-15.8c-1.2-0.5-1.9-1.8-1.4-3.1c0.5-1.2,1.8-1.9,3.1-1.4l42.8,15.8
						c1.2,0.5,1.9,1.8,1.4,3.1C117.8,361.9,116.4,362.6,115.2,362.1z"/>
				</g>
				<g>
					<path fill="#4B5A70" d="M111.5,372.1l-42.8-15.8c-1.2-0.5-1.9-1.8-1.4-3.1s1.8-1.9,3.1-1.4l42.8,15.8c1.2,0.5,1.9,1.8,1.4,3.1
						C114.1,371.9,112.7,372.6,111.5,372.1z"/>
				</g>
				<g>
					<path fill="#4B5A70" d="M107.8,382.1L65,366.4c-1.2-0.5-1.9-1.8-1.4-3.1c0.5-1.2,1.8-1.9,3.1-1.4l42.8,15.8
						c1.2,0.5,1.9,1.8,1.4,3.1C110.4,381.9,109.1,382.6,107.8,382.1z"/>
				</g>
				<g>
					<path fill="#4B5A70" d="M104.1,392.1l-42.8-15.8c-1.2-0.5-1.9-1.8-1.4-3.1c0.5-1.2,1.8-1.9,3.1-1.4l42.8,15.8
						c1.2,0.5,1.9,1.8,1.4,3.1S105.4,392.6,104.1,392.1z"/>
				</g>
				<g>
					<path fill="#4B5A70" d="M100.5,402.1l-42.8-15.8c-1.2-0.5-1.9-1.8-1.4-3.1c0.5-1.2,1.8-1.9,3.1-1.4l42.8,15.8
						c1.2,0.5,1.9,1.8,1.4,3.1C103.1,401.9,101.7,402.6,100.5,402.1z"/>
				</g>
				<g>
					<path fill="#4B5A70" d="M96.8,412.1L54,396.3c-1.2-0.5-1.9-1.8-1.4-3.1c0.5-1.2,1.8-1.9,3.1-1.4l42.8,15.8
						c1.2,0.5,1.9,1.8,1.4,3.1C99.4,411.9,98,412.5,96.8,412.1z"/>
				</g>
			</g>
			<g>
				<path fill="#FFFFFF" d="M139.1,343.3L139.1,343.3c2.6-7.1,10.5-10.7,17.6-8.1l53.5,19.7l-37.3,101.4l-53.5-19.7
					c-7.1-2.6-15,1-17.6,8.1h0L139.1,343.3z"/>
				<path fill="#4B5A70" d="M101,446.9c-1.2-0.5-1.9-1.8-1.4-3.1l37.3-101.4c3.1-8.3,12.3-12.6,20.6-9.5l53.5,19.7
					c1.2,0.5,1.9,1.8,1.4,3.1L175.2,457c-0.5,1.2-1.8,1.9-3.1,1.4l-53.5-19.7c-5.8-2.2-12.3,0.9-14.5,6.7
					C103.6,446.7,102.3,447.3,101,446.9z M155.9,337.4c-5.8-2.2-12.3,0.9-14.5,6.7L108,434.7c3.7-1.7,8.1-2,12.2-0.5l51.3,18.9
					l35.6-96.9L155.9,337.4z"/>
			</g>
			<g>
				<path fill="#4B5A70" d="M195.3,368.9l-42.8-15.8c-1.2-0.5-1.9-1.8-1.4-3.1c0.5-1.2,1.8-1.9,3.1-1.4l42.8,15.8
					c1.2,0.5,1.9,1.8,1.4,3.1C197.9,368.7,196.6,369.4,195.3,368.9z"/>
			</g>
			<g>
				<path fill="#4B5A70" d="M191.6,378.9l-42.8-15.8c-1.2-0.5-1.9-1.8-1.4-3.1c0.5-1.2,1.8-1.9,3.1-1.4l42.8,15.8
					c1.2,0.5,1.9,1.8,1.4,3.1C194.3,378.7,192.9,379.4,191.6,378.9z"/>
			</g>
			<g>
				<path fill="#4B5A70" d="M188,388.9l-42.8-15.8c-1.2-0.5-1.9-1.8-1.4-3.1s1.8-1.9,3.1-1.4l42.8,15.8c1.2,0.5,1.9,1.8,1.4,3.1
					C190.6,388.7,189.2,389.4,188,388.9z"/>
			</g>
			<g>
				<path fill="#4B5A70" d="M184.3,398.9l-42.8-15.8c-1.2-0.5-1.9-1.8-1.4-3.1c0.5-1.2,1.8-1.9,3.1-1.4l42.8,15.8
					c1.2,0.5,1.9,1.8,1.4,3.1C186.9,398.7,185.5,399.4,184.3,398.9z"/>
			</g>
			<g>
				<path fill="#4B5A70" d="M180.6,408.9l-42.8-15.8c-1.2-0.5-1.9-1.8-1.4-3.1c0.5-1.2,1.8-1.9,3.1-1.4l42.8,15.8
					c1.2,0.5,1.9,1.8,1.4,3.1C183.2,408.7,181.9,409.3,180.6,408.9z"/>
			</g>
			<g>
				<path fill="#4B5A70" d="M176.9,418.9l-42.8-15.8c-1.2-0.5-1.9-1.8-1.4-3.1c0.5-1.2,1.8-1.9,3.1-1.4l42.8,15.8
					c1.2,0.5,1.9,1.8,1.4,3.1C179.6,418.7,178.2,419.3,176.9,418.9z"/>
			</g>
			<g>
				<path fill="#4B5A70" d="M173.3,428.9l-42.8-15.8c-1.2-0.5-1.9-1.8-1.4-3.1c0.5-1.2,1.8-1.9,3.1-1.4l42.8,15.8
					c1.2,0.5,1.9,1.8,1.4,3.1C175.9,428.7,174.5,429.3,173.3,428.9z"/>
			</g>
			<g>
				<path fill="#4B5A70" d="M169.6,438.9l-42.8-15.8c-1.2-0.5-1.9-1.8-1.4-3.1s1.8-1.9,3.1-1.4l42.8,15.8c1.2,0.5,1.9,1.8,1.4,3.1
					C172.2,438.7,170.8,439.3,169.6,438.9z"/>
			</g>
		</g>
	</g>
	<g opacity="0.2">
		<g>
			<path fill="#FFFFFF" d="M1241.4,280.9L1241.4,280.9c-22.5,8.2-34.1,33.1-25.9,55.6v0c4.5,12.3,13.9,21.3,25.1,25.6
				c7.3,2.8,13.1,8.6,15.8,15.9l0,0c1.7,4.7,6.9,7.1,11.6,5.4l19-6.9c4.7-1.7,7.1-6.9,5.4-11.6v0c-2.7-7.4-1.9-15.5,1.8-22.3
				c5.8-10.6,7.3-23.5,2.8-35.8l0,0C1288.8,284.3,1263.9,272.7,1241.4,280.9z"/>
			<path fill="#4B5A70" d="M1287.7,378.8l-19,6.9c-5.9,2.2-12.5-0.9-14.6-6.8c-2.4-6.6-7.6-11.9-14.4-14.5
				c-12.3-4.8-22-14.6-26.5-27c-8.6-23.7,3.7-50,27.4-58.6s50,3.7,58.6,27.4c4.5,12.4,3.4,26.2-3,37.8c-3.5,6.3-4.1,13.7-1.7,20.4
				C1296.7,370.1,1293.7,376.6,1287.7,378.8z M1242.3,283.2c-21.2,7.7-32.2,31.3-24.5,52.5c4,11.1,12.7,19.9,23.7,24.2
				c8,3.1,14.3,9.4,17.1,17.3c1.3,3.4,5.1,5.2,8.5,4l19-6.9c3.4-1.3,5.2-5.1,4-8.5c-2.9-7.9-2.2-16.8,2-24.3
				c5.7-10.4,6.7-22.7,2.7-33.8C1287,286.4,1263.5,275.4,1242.3,283.2z"/>
		</g>
		<g>
			<path fill="#FFFFFF" d="M1263.3,392.1l6.5,17.8c1.7,4.6,6.7,6.9,11.2,5.3l16.2-5.9c4.6-1.7,6.9-6.7,5.3-11.2l-6.5-17.8
				L1263.3,392.1z"/>
			<path fill="#4B5A70" d="M1298.1,411.5l-16.2,5.9c-5.8,2.1-12.2-0.9-14.3-6.7l-6.5-17.8c-0.5-1.2,0.2-2.6,1.4-3.1l32.7-11.9
				c1.2-0.5,2.6,0.2,3.1,1.4l6.5,17.8C1306.9,403,1303.9,409.4,1298.1,411.5z M1266.4,393.5l5.7,15.6c1.2,3.3,4.9,5,8.2,3.8
				l16.2-5.9c3.3-1.2,5-4.9,3.8-8.2l-5.7-15.6L1266.4,393.5z"/>
		</g>
		<g>
			<path fill="#4B5A70" d="M1272,383.3c-1.1,0.4-2.3,0-2.9-1l-32.4-54.8c-0.5-0.8-0.4-1.9,0.1-2.7c0.6-0.8,1.6-1.1,2.5-0.9l11.3,2.9
				l2.9-7.3c0.5-1.3,2.2-1.9,3.4-1.2l6.9,3.7l6.8-9.5c0.6-0.8,1.5-1.2,2.5-0.9c0.9,0.2,1.7,1,1.8,1.9l10.3,62.8
				c0.2,1.3-0.7,2.5-2,2.8c-1.3,0.2-2.5-0.7-2.8-2l-9.4-57l-4.6,6.5c-0.7,1-2,1.3-3.1,0.7l-6.4-3.4l-2.7,6.8
				c-0.4,1.1-1.7,1.7-2.8,1.4l-7.7-2l29.4,49.8c0.7,1.1,0.3,2.6-0.8,3.3C1272.3,383.2,1272.1,383.2,1272,383.3z"/>
		</g>
		<g>
			<path fill="#4B5A70" d="M1239.6,275.9c-1.2,0.5-2.6-0.2-3.1-1.4l-7.9-21.6c-0.5-1.2,0.2-2.6,1.4-3.1s2.6,0.2,3.1,1.4l7.9,21.6
				C1241.5,274.1,1240.9,275.5,1239.6,275.9z"/>
		</g>
		<g>
			<path fill="#4B5A70" d="M1279.2,277.7c-0.6,0.2-1.2,0.2-1.8-0.1c-1.2-0.6-1.7-2-1.2-3.2l9.7-20.9c0.6-1.2,2-1.7,3.2-1.2
				c1.2,0.6,1.7,2,1.2,3.2l-9.7,20.9C1280.2,277.1,1279.7,277.5,1279.2,277.7z"/>
		</g>
		<g>
			<path fill="#4B5A70" d="M1327.5,299l-21.6,7.9c-1.2,0.5-2.6-0.2-3.1-1.4s0.2-2.6,1.4-3.1l21.6-7.9c1.2-0.5,2.6,0.2,3.1,1.4
				C1329.4,297.2,1328.8,298.6,1327.5,299z"/>
		</g>
		<g>
			<path fill="#4B5A70" d="M1325,356.1c-0.6,0.2-1.2,0.2-1.8-0.1l-20.9-9.7c-1.2-0.6-1.7-2-1.2-3.2c0.6-1.2,2-1.7,3.2-1.2l20.9,9.7
				c1.2,0.6,1.7,2,1.2,3.2C1326.1,355.5,1325.6,355.9,1325,356.1z"/>
		</g>
		<g>
			<path fill="#4B5A70" d="M1210.5,302.7c-0.6,0.2-1.2,0.2-1.8-0.1l-20.9-9.7c-1.2-0.6-1.7-2-1.2-3.2c0.6-1.2,2-1.7,3.2-1.2
				l20.9,9.7c1.2,0.6,1.7,2,1.2,3.2C1211.5,302,1211,302.5,1210.5,302.7z"/>
		</g>
		<g>
			<path fill="#4B5A70" d="M1208.7,342.2l-21.6,7.9c-1.2,0.5-2.6-0.2-3.1-1.4c-0.5-1.2,0.2-2.6,1.4-3.1l21.6-7.9
				c1.2-0.5,2.6,0.2,3.1,1.4C1210.6,340.4,1210,341.7,1208.7,342.2z"/>
		</g>
		<g>
			<path fill="#4B5A70" d="M1225.7,392.2c-0.6,0.2-1.2,0.2-1.8-0.1c-1.2-0.6-1.7-2-1.2-3.2l9.7-20.9c0.6-1.2,2-1.7,3.2-1.2
				c1.2,0.6,1.7,2,1.2,3.2L1227,391C1226.8,391.6,1226.3,392,1225.7,392.2z"/>
		</g>
	</g>
	<g opacity="0.2">
		<g>
			<g>
				<path fill="#FFFFFF" d="M1250,831.2c-12.6-16-44.4-14.6-58.8,13.5c-30.6-7.9-52.7,15.1-49.1,35.1c3.6,20,40.6,54.2,58.7,55.8
					s22.8-18.9,22.8-18.9s18.6,10,29.3-4.6C1263.7,897.5,1262.6,847.2,1250,831.2z"/>
				<path fill="#4B5A70" d="M1246.4,920.5C1246.4,920.5,1246.4,920.5,1246.4,920.5c-8.2,3.7-17,1.1-21.3-0.6
					c-1.6,4.3-5.5,12.6-13.7,16.3c-3.3,1.5-6.9,2.1-10.9,1.7c-19.6-1.8-57.1-37.4-60.8-57.7c-2.5-14,6.5-29,21.4-35.7
					c8.7-3.9,18.6-4.8,28.8-2.5c5.1-9.1,12.3-16,21-19.9c14.9-6.7,32.2-3.5,41,7.6c12.8,16.2,14.7,67.9,3,83.8
					C1252.6,916.7,1249.7,919,1246.4,920.5z M1222.7,914.5c0.7-0.3,1.5-0.3,2.1,0.1c0.1,0.1,10.7,5.6,19.7,1.6c0,0,0,0,0,0
					c2.5-1.1,4.7-3,6.6-5.5c10.6-14.4,8.8-63.2-2.9-78c-7.5-9.4-22.3-12.1-35.2-6.2c-8.2,3.7-15,10.4-19.6,19.4
					c-0.5,1-1.6,1.5-2.7,1.2c-9.7-2.5-19.2-1.9-27.4,1.8c-13,5.8-20.8,18.7-18.7,30.5c3.3,18.5,38.7,52.2,56.5,53.8
					c3.1,0.3,5.9-0.2,8.5-1.3c9-4,11.8-15.7,11.8-15.8C1221.5,915.4,1222,914.8,1222.7,914.5z"/>
			</g>
			<g>
				<path fill="#4B5A70" d="M1192.5,831.1C1192.5,831.1,1192.5,831.1,1192.5,831.1c-1.3,0.6-2.6,1.1-4,1.5c-1.1,0.3-2.2-0.1-2.8-1.1
					c-4.5-7.5-5.7-15-3.7-22.3c4.1-14.7,20-23.1,20.7-23.4c0.6-0.3,1.3-0.4,2-0.1s1.1,0.7,1.4,1.4
					C1206.2,787.4,1218.1,819.6,1192.5,831.1z M1188.8,827.5c0.6-0.2,1.1-0.5,1.7-0.7c17.8-8,14-27.9,11.9-35.2
					c-4.3,2.8-13.2,9.6-15.8,19C1185.1,816.1,1185.8,821.7,1188.8,827.5z"/>
			</g>
		</g>
		<g>
			<path fill="#4B5A70" d="M1192.2,846.9c-0.1,0-0.1,0.1-0.2,0.1c-1.3,0.4-2.6-0.3-3-1.5l0,0c-0.4-1.2-10.5-29.8-43-25.7
				c-1.3,0.2-2.5-0.8-2.7-2.1s0.8-2.5,2.1-2.7c36.4-4.6,48,28.5,48.1,28.9C1193.9,845.2,1193.3,846.4,1192.2,846.9z"/>
		</g>
	</g>
	<g opacity="0.2">
		<g>
			<path fill="#FFFFFF" d="M1362.3,54l-24.1-19l-37.8-5.9l-28.7,10.7c-4.6,1.7-8,5.8-8.7,10.7l-1.8,11.8l52.2,8.1l52.2,8.1l1.8-11.8
				C1368.1,61.9,1366.1,57,1362.3,54z"/>
			<path fill="#4B5A70" d="M1365.2,80.5l-104.3-16.3c-1-0.2-1.7-1.1-1.6-2.2l1.8-11.8c0.9-5.6,4.7-10.2,9.9-12.2l28.7-10.7
				c0.3-0.1,0.6-0.1,1-0.1l37.8,5.9c0.3,0.1,0.6,0.2,0.9,0.4l24.1,19c4.4,3.5,6.6,9.1,5.7,14.6l-1.8,11.8
				C1367.2,79.9,1366.2,80.6,1365.2,80.5z M1263.3,60.7l100.6,15.7l1.5-9.9c0.7-4.2-1-8.4-4.3-11.1l-23.7-18.7l-36.8-5.7l-28.3,10.6
				c-4,1.5-6.9,5-7.5,9.2L1263.3,60.7z"/>
		</g>
		<g>
			<polygon fill="#FFFFFF" points="1300.4,29.1 1280,36.7 1314.8,60.7 1355.3,48.5 1338.2,35 			"/>
			<path fill="#4B5A70" d="M1314.5,62.6c-0.3,0-0.5-0.1-0.8-0.3l-34.8-24c-0.6-0.4-0.9-1.1-0.8-1.8c0.1-0.7,0.6-1.3,1.2-1.5
				l20.4-7.6c0.3-0.1,0.6-0.1,1-0.1l37.8,5.9c0.3,0.1,0.6,0.2,0.9,0.4l17.1,13.5c0.6,0.4,0.8,1.1,0.7,1.8c-0.1,0.7-0.6,1.3-1.3,1.5
				l-40.5,12.2C1315.1,62.6,1314.8,62.6,1314.5,62.6z M1284.1,37.2l31.1,21.4l36.1-10.9l-13.9-10.9l-36.8-5.7L1284.1,37.2z"/>
		</g>
		<g>
			<path fill="#FFFFFF" d="M1304.9,25.5l-1.2,7.6c-1.3,8.3,4.4,16.1,12.7,17.4c8.3,1.3,16.1-4.4,17.4-12.7l1.2-7.6L1304.9,25.5z"/>
			<path fill="#4B5A70" d="M1316.1,52.4c-9.3-1.5-15.7-10.2-14.3-19.5l1.2-7.7c0.2-1,1.1-1.7,2.2-1.6l30,4.7c1,0.2,1.7,1.1,1.6,2.2
				l-1.2,7.7C1334.2,47.5,1325.4,53.9,1316.1,52.4z M1306.5,27.7l-0.9,5.8c-1.1,7.2,3.8,14.1,11.1,15.2c7.2,1.1,14.1-3.8,15.2-11.1
				l0.9-5.8L1306.5,27.7z"/>
		</g>
		<g>
			<g>
				<path fill="#FFFFFF" d="M1293.7,0l-0.8,5.4c-2.6,16.5,8.7,31.9,25.2,34.5l0,0c16.5,2.6,31.9-8.7,34.5-25.2l2.3-14.7H1293.7z"/>
				<path fill="#4B5A70" d="M1352.9,0l-2.2,14.4c-2.4,15.4-16.9,26-32.3,23.6c-15.4-2.4-26-16.9-23.6-32.3l0.9-5.7h-3.8l-0.8,5.1
					c-2.7,17.5,9.3,33.9,26.7,36.6c17.5,2.7,33.9-9.3,36.6-26.7l2.3-15H1352.9z"/>
			</g>
			<g>
				<path fill="#4B5A70" d="M1371.3,0l-2.5,15.9c-0.2,1,0.5,2,1.6,2.2s2-0.5,2.2-1.6l2.6-16.4H1371.3z"/>
			</g>
		</g>
	</g>
	<g opacity="0.2">
		<g>
			<path fill="#FFFFFF" d="M62.7,980c-0.3-3.6-1.9-7-4.7-9.4l-23.2-20l-34.8-7V980H62.7z"/>
			<path fill="#4B5A70" d="M56.7,972.1c2.4,2,3.8,4.9,4,7.9h3.8c-0.3-4.1-2.2-8.1-5.4-10.8l-23.2-20c-0.2-0.2-0.5-0.4-0.9-0.4
				L0,941.6v3.9l33.9,6.9L56.7,972.1z"/>
		</g>
		<g>
			<polygon fill="#FFFFFF" points="34.8,950.6 0,943.5 0,967.5 10.3,975.2 51.3,964.8 			"/>
			<path fill="#4B5A70" d="M52.5,963.4L36,949.1c-0.2-0.2-0.5-0.4-0.9-0.4L0,941.6v3.9l33.9,6.9l13.4,11.5l-36.6,9.3L0,965.1v4.8
				l9.1,6.9c0.2,0.2,0.5,0.3,0.8,0.3c0.3,0.1,0.6,0.1,0.8,0l41-10.4c0.7-0.2,1.2-0.7,1.4-1.4C53.3,964.6,53,963.9,52.5,963.4z"/>
		</g>
		<g>
			<path fill="#FFFFFF" d="M2,939.6l-1.5,7.6c-1.7,8.2,3.7,16.2,11.9,17.9c8.2,1.7,16.2-3.7,17.9-11.9l1.5-7.6L2,939.6z"/>
			<path fill="#4B5A70" d="M32.1,943.8l-29.8-6c-1-0.2-2,0.5-2.2,1.5L0,939.8v17.9c2.3,4.6,6.5,8.2,12,9.3
				c9.2,1.9,18.3-4.1,20.1-13.4l1.5-7.6C33.8,945,33.2,944,32.1,943.8z M28.4,952.9c-1.5,7.2-8.5,11.9-15.7,10.4
				c-7.2-1.5-11.9-8.5-10.4-15.7l1.2-5.7l26.1,5.3L28.4,952.9z"/>
		</g>
		<g>
			<g>
				<path fill="#FFFFFF" d="M0,892.9v54.3c3.9,3.6,8.9,6.2,14.5,7.4l0,0c16.3,3.3,32.3-7.3,35.6-23.6l5.4-26.8L0,892.9z"/>
				<path fill="#4B5A70" d="M55.8,902.2L0,890.9v3.9l53.2,10.8l-5.1,25c-3.1,15.3-18,25.2-33.3,22.1c-5.9-1.2-11-4.2-14.8-8.2v5.2
					c3.9,3.3,8.7,5.7,14.1,6.7c17.3,3.5,34.3-7.7,37.8-25.1l5.4-26.8C57.5,903.4,56.9,902.4,55.8,902.2z"/>
			</g>
			<g>
				<g>
					<polygon fill="#FFFFFF" points="2.1,868 0,874.1 0,898.8 23.7,909.1 30.8,873.8 					"/>
					<path fill="#4B5A70" d="M31.2,871.9l-28.7-5.8c-0.9-0.2-1.9,0.3-2.2,1.2L0,868.2v11.7l3.3-9.8l25.2,5.1l-6.3,31.2L0,896.7v4.1
						l22.9,10c0.1,0.1,0.3,0.1,0.4,0.1c0.4,0.1,0.9,0,1.3-0.2c0.5-0.3,0.9-0.7,1-1.3l7.1-35.3C32.9,873.1,32.2,872.1,31.2,871.9z"/>
				</g>
				<g>
					<polygon fill="#FFFFFF" points="59.5,879.6 30.8,873.8 23.7,909.1 57.5,908.7 					"/>
					<path fill="#4B5A70" d="M23.3,911c-0.4-0.1-0.8-0.3-1.1-0.6c-0.4-0.4-0.5-1-0.4-1.6l7.1-35.3c0.2-1,1.2-1.7,2.2-1.5l28.7,5.8
						c0.9,0.2,1.6,1,1.5,2l-2,29.1c-0.1,1-0.9,1.8-1.9,1.8L23.7,911C23.6,911,23.4,911,23.3,911z M32.3,876L26,907.2l29.7-0.4
						l1.8-25.7L32.3,876z"/>
				</g>
			</g>
			<g>
				<path fill="#FFFFFF" d="M91.7,878.9L0,860.4v7l90.3,18.3c1.9,0.4,3.7-0.8,4-2.7C94.7,881.1,93.5,879.3,91.7,878.9z"/>
				<path fill="#4B5A70" d="M92.1,877.1L0,858.4v3.9l91.3,18.5c0.8,0.2,1.4,1,1.2,1.8c-0.2,0.8-1,1.4-1.8,1.2L0,865.4v3.9l89.9,18.2
					c2.9,0.6,5.7-1.3,6.3-4.2S94.9,877.6,92.1,877.1z"/>
			</g>
			<g>
				<path fill="#4B5A70" d="M67.7,935.1c-1-0.2-1.7-1.2-1.5-2.2L77.6,877c0.2-1,1.2-1.7,2.2-1.5s1.7,1.2,1.5,2.2L70,933.6
					C69.8,934.6,68.8,935.3,67.7,935.1z"/>
			</g>
		</g>
	</g>
	<g opacity="0.2">
		<g>
			<g>
				<path fill="#FFFBD2" d="M1400,549.4l-13.6,9.8c-6.3,4.5-7.7,13.3-3.2,19.6c3.9,5.4,10.9,7.2,16.8,4.7V549.4z"/>
				<path fill="#4B5A70" d="M1400,581.5c-5.2,2.6-11.7,1.1-15.2-3.8c-3.9-5.4-2.7-13,2.7-17l12.5-9v-4.7l-14.7,10.6
					c-7.1,5.1-8.7,15.1-3.6,22.3c4.2,5.9,11.8,8,18.3,5.7V581.5z"/>
			</g>
			<g>
				<g>
					<path fill="#FFFFFF" d="M1400,456.9l-11.3-15.7l-57.5,41.5c-6.3,4.5-7.7,13.3-3.2,19.6l55.3,76.5c-4.5-6.3-3.1-15.1,3.2-19.6
						l13.6-9.8V456.9z"/>
					<path fill="#4B5A70" d="M1400,547.1l-14.7,10.6c-3.9,2.8-6.2,7.2-6.6,11.7l-49.2-68.1c-3.9-5.4-2.7-13,2.7-17l56-40.4
						l11.8,16.3v-6.5l-9.8-13.6c-0.6-0.9-1.8-1-2.7-0.4l-57.5,41.5c-7.1,5.1-8.7,15.1-3.6,22.3l55.3,76.5c0.6,0.9,1.8,1,2.7,0.4
						c0.9-0.6,1-1.8,0.4-2.7c-3.9-5.4-2.7-13,2.7-17l12.5-9V547.1z"/>
				</g>
			</g>
			<g>
				<g>
					<path fill="#FFFFFF" d="M1331.8,482.2l-0.7,0.5c-6.3,4.5-7.7,13.3-3.2,19.6l55.3,76.5c-4.5-6.3-3.1-15.1,3.2-19.6l0.7-0.5
						L1331.8,482.2z"/>
					<path fill="#4B5A70" d="M1384.4,580.4c-0.9,0.6-2,0.4-2.7-0.4l-55.3-76.5c-5.1-7.1-3.5-17.1,3.6-22.3l0.7-0.5
						c0.9-0.6,2-0.4,2.7,0.4l55.3,76.5c0.6,0.9,0.4,2-0.4,2.7l-0.7,0.5c-5.4,3.9-6.7,11.5-2.7,17
						C1385.4,578.6,1385.2,579.8,1384.4,580.4z M1331.4,484.9c-4.7,4.1-5.6,11.2-1.9,16.3l49.2,68.1c0.3-4.2,2.3-8.2,5.7-11
						L1331.4,484.9z"/>
				</g>
			</g>
			<g>
				<path fill="#FFFBD2" d="M1378.1,468l-18.3,13.2c-3.5,2.6-4.3,7.5-1.8,11.1l3.1,4.3c2.6,3.5,7.5,4.3,11.1,1.8l18.3-13.2
					c3.5-2.6,4.3-7.5,1.8-11.1l-3.1-4.3C1386.6,466.3,1381.7,465.5,1378.1,468z"/>
				<path fill="#4B5A70" d="M1391.6,486.7l-18.3,13.2c-4.4,3.2-10.5,2.2-13.7-2.2l-3.1-4.3c-3.2-4.4-2.2-10.5,2.2-13.7l18.3-13.2
					c4.4-3.2,10.5-2.2,13.7,2.2l3.1,4.3C1397,477.4,1396,483.5,1391.6,486.7z M1361,482.8c-2.7,1.9-3.3,5.7-1.4,8.4l3.1,4.3
					c1.9,2.7,5.7,3.3,8.4,1.4l18.3-13.2c2.7-1.9,3.3-5.7,1.4-8.4l-3.1-4.3c-1.9-2.7-5.7-3.3-8.4-1.4L1361,482.8z"/>
			</g>
		</g>
		<g>
			<polygon fill="#FFFFFF" points="1400,566.1 1399.8,566.2 1395.2,569.6 1400,576.3 			"/>
			<path fill="#4B5A70" d="M1400,573l-2.2-3l2.2-1.6v-4.7l-5.9,4.3c-0.9,0.6-1,1.8-0.4,2.7l6.4,8.8V573z"/>
		</g>
	</g>
	<g opacity="0.2">
		<g>
			<g>
				<path fill="#FFFBD2" d="M64.2,240.7c-3.6-5-3.4-11.7,0-16.5l-0.4-0.6L6.3,265.2c-6.3,4.5-7.7,13.3-3.2,19.6
					c4.5,6.3,13.3,7.7,19.6,3.2l57.5-41.5l-0.4-0.6C74.2,247.7,67.8,245.8,64.2,240.7z"/>
				<path fill="#4B5A70" d="M81.8,245.3l-0.4-0.6c-0.5-0.7-1.3-0.9-2.1-0.7c-5,1.6-10.5-0.2-13.5-4.5s-3.1-10,0-14.3
					c0.5-0.7,0.5-1.6,0-2.2l-0.4-0.6c-0.6-0.9-1.8-1-2.7-0.4L5.2,263.7c-2.3,1.7-4.1,3.9-5.2,6.4v13.1c0.4,1,1,1.9,1.6,2.8
					c5.1,7.1,15.1,8.7,22.3,3.6L81.4,248C82.2,247.4,82.4,246.2,81.8,245.3z M21.6,286.4c-5.4,3.9-13,2.7-17-2.7
					c-3.9-5.4-2.7-13,2.7-17l52.7-38.1c-1.1,4.4-0.2,9.3,2.6,13.1c2.8,3.9,7.1,6.2,11.7,6.6L21.6,286.4z"/>
			</g>
			<g>
				<g>
					<path fill="#FFFFFF" d="M8.6,147.2L0,153.3v127.1l3.1,4.3c-4.5-6.3-3.1-15.1,3.2-19.6l57.5-41.5L8.6,147.2z"/>
					<path fill="#4B5A70" d="M65.4,222.5L10.1,146c-0.6-0.9-1.8-1-2.7-0.4L0,151v4.7l8.1-5.9l53,73.4l-56,40.4
						c-2.3,1.7-4.1,3.9-5.2,6.4v13.7l1.6,2.2c0.6,0.9,1.8,1,2.7,0.4c0.9-0.6,1-1.8,0.4-2.7c-3.9-5.4-2.7-13,2.7-17l57.5-41.5
						C65.8,224.6,66,223.4,65.4,222.5z"/>
				</g>
			</g>
			<g>
				<g>
					<path fill="#FFFFFF" d="M0,255v25.4l3.1,4.3c-4.5-6.3-3.1-15.1,3.2-19.6l0.7-0.5L0,255z"/>
					<path fill="#4B5A70" d="M8.5,263.6L0,251.8v6.5l4.3,6c-1.9,1.6-3.4,3.6-4.3,5.7v13.7l1.6,2.2c0.6,0.9,1.8,1,2.7,0.4
						c0.9-0.6,1-1.8,0.4-2.7c-3.9-5.4-2.7-13,2.7-17l0.7-0.5C8.9,265.6,9.1,264.4,8.5,263.6z"/>
				</g>
			</g>
			<g>
				<path fill="#FFFBD2" d="M12.2,180.1l-3.1-4.3c-2.1-2.9-5.9-4-9.1-2.8v25.7l10.4-7.5C14,188.6,14.8,183.6,12.2,180.1z"/>
				<path fill="#4B5A70" d="M13.7,179l-3.1-4.3c-2.5-3.4-6.8-4.8-10.6-3.7v4c2.6-1.3,5.8-0.6,7.6,1.9l3.1,4.3
					c1.9,2.7,1.3,6.5-1.4,8.4L0,196.3v4.7l11.5-8.3C15.9,189.5,16.9,183.4,13.7,179z"/>
			</g>
		</g>
		<g>
			<polygon fill="#FFFFFF" points="19.7,272.2 15.1,275.6 26.2,290.9 27.5,282.9 35.5,284.2 24.4,268.9 			"/>
			<path fill="#4B5A70" d="M36.6,285.8c-0.4,0.3-0.9,0.4-1.4,0.3l-6.1-1l-1,6.1c-0.1,0.8-0.7,1.4-1.4,1.5c-0.7,0.2-1.5-0.1-2-0.7
				l-11.1-15.4c-0.6-0.9-0.4-2,0.4-2.7l9.3-6.7c0.9-0.6,2-0.4,2.7,0.4L37,283.1c0.4,0.6,0.5,1.5,0.1,2.1
				C37,285.4,36.8,285.6,36.6,285.8z M26.4,281.4c0.4-0.3,0.9-0.4,1.4-0.3l3.5,0.6l-7.3-10.1l-6.2,4.5l7.3,10.1l0.6-3.5
				C25.7,282.1,26,281.7,26.4,281.4z"/>
		</g>
	</g>
	<g opacity="0.2">
		<g>
			<g>
				<path fill="#FFFBD2" d="M1111.5,980c-1.8-4.5-1.2-9.7,1.6-13.6l-0.4-0.6l-19.6,14.1H1111.5z"/>
				<path fill="#4B5A70" d="M1096.4,980l12.6-9.1c-0.7,3-0.6,6.2,0.5,9.1h4.1c-1.9-4-1.6-8.8,1.1-12.5c0.5-0.7,0.5-1.6,0-2.2
					l-0.4-0.6c-0.6-0.9-1.8-1-2.7-0.4L1090,980H1096.4z"/>
			</g>
			<g>
				<g>
					<path fill="#FFFFFF" d="M1018.1,980h75.1l19.6-14.1l-55.3-76.5l-57.5,41.5c-6.3,4.5-7.7,13.3-3.2,19.6L1018.1,980z"/>
					<path fill="#4B5A70" d="M1015.8,980h4.7l-22.1-30.6c-3.9-5.4-2.7-13,2.7-17l56-40.4l53,73.4L1090,980h6.5l17.4-12.6
						c0.9-0.6,1-1.8,0.4-2.7l-55.3-76.5c-0.6-0.9-1.8-1-2.7-0.4l-57.5,41.5c-7.1,5.1-8.7,15.1-3.6,22.3L1015.8,980z"/>
				</g>
			</g>
			<g>
				<g>
					<path fill="#FFFFFF" d="M1018.1,980h18.4l-35.8-49.6l-0.7,0.5c-6.3,4.5-7.7,13.3-3.2,19.6L1018.1,980z"/>
					<path fill="#4B5A70" d="M1015.8,980h4.7l-22.1-30.6c-3.7-5.1-2.8-12.2,1.9-16.3l33.9,46.9h4.7l-36.6-50.7
						c-0.6-0.9-1.8-1-2.7-0.4l-0.7,0.5c-7.1,5.1-8.7,15.1-3.6,22.3L1015.8,980z"/>
				</g>
			</g>
			<g>
				<path fill="#FFFBD2" d="M1047,916.2l-18.3,13.2c-3.5,2.6-4.3,7.5-1.8,11.1l3.1,4.3c2.6,3.5,7.5,4.3,11.1,1.8l18.3-13.2
					c3.5-2.6,4.3-7.5,1.8-11.1l-3.1-4.3C1055.5,914.5,1050.6,913.7,1047,916.2z"/>
				<path fill="#4B5A70" d="M1060.5,934.9l-18.3,13.2c-4.4,3.2-10.5,2.2-13.7-2.2l-3.1-4.3c-3.2-4.4-2.2-10.5,2.2-13.7l18.3-13.2
					c4.4-3.2,10.5-2.2,13.7,2.2l3.1,4.3C1065.9,925.6,1064.9,931.7,1060.5,934.9z M1029.8,931c-2.7,1.9-3.3,5.7-1.4,8.4l3.1,4.3
					c1.9,2.7,5.7,3.3,8.4,1.4l18.3-13.2c2.7-1.9,3.3-5.7,1.4-8.4l-3.1-4.3c-1.9-2.7-5.7-3.3-8.4-1.4L1029.8,931z"/>
			</g>
		</g>
	</g>
	<g opacity="0.2">
		<g>
			<g>
				<path fill="#FFFBD2" d="M585.1,11.9c-2.6-3.6-3.2-8-2.2-11.9h-5.3l-50.4,36.4c-6.3,4.5-7.7,13.3-3.2,19.6
					c4.5,6.3,13.3,7.7,19.6,3.2l57.5-41.5l-0.4-0.6C595.1,18.9,588.8,17,585.1,11.9z"/>
				<path fill="#4B5A70" d="M602.3,16c-0.5-0.7-1.3-0.9-2.1-0.7c-5,1.6-10.5-0.2-13.5-4.5c-2.3-3.2-2.9-7.2-1.7-10.8H581
					c-1.1,4.4-0.2,9.2,2.6,13c2.8,3.9,7.1,6.2,11.7,6.6l-52.7,38.1c-5.4,3.9-13,2.7-17-2.7c-3.9-5.4-2.7-13,2.7-17L580.9,0h-6.5
					l-48.3,34.9c-7.1,5.1-8.7,15.1-3.6,22.3c5.1,7.1,15.1,8.7,22.3,3.6l57.5-41.5c0.9-0.6,1-1.8,0.4-2.7L602.3,16z"/>
			</g>
			<g>
				<g>
					<path fill="#FFFFFF" d="M483.6,0L524,56c-4.5-6.3-3.1-15.1,3.2-19.6L577.6,0H483.6z"/>
					<path fill="#4B5A70" d="M574.4,0l-48.3,34.9c-3.9,2.8-6.2,7.2-6.6,11.7L485.9,0h-4.7l41.3,57.1c0.6,0.9,1.8,1,2.7,0.4
						c0.9-0.6,1-1.8,0.4-2.7c-3.9-5.4-2.7-13,2.7-17L580.9,0H574.4z"/>
				</g>
			</g>
			<g>
				<g>
					<path fill="#FFFFFF" d="M483.6,0L524,56c-4.5-6.3-3.1-15.1,3.2-19.6l0.7-0.5L501.9,0H483.6z"/>
					<path fill="#4B5A70" d="M504.3,0h-4.7l25.7,35.5c-3.4,2.8-5.4,6.9-5.7,11L485.9,0h-4.7l41.3,57.1c0.6,0.9,1.8,1,2.7,0.4
						c0.9-0.6,1-1.8,0.4-2.7c-3.9-5.4-2.7-13,2.7-17l0.7-0.5c0.9-0.6,1-1.8,0.4-2.7L504.3,0z"/>
				</g>
			</g>
		</g>
		<g>
			<polygon fill="#FFFFFF" points="540.6,43.4 536,46.8 547.1,62.2 548.4,54.2 556.4,55.4 545.3,40.1 			"/>
			<path fill="#4B5A70" d="M557.5,57c-0.4,0.3-0.9,0.4-1.4,0.3l-6.1-1l-1,6.1c-0.1,0.8-0.7,1.4-1.4,1.5c-0.7,0.2-1.5-0.1-2-0.7
				l-11.1-15.4c-0.6-0.9-0.4-2,0.4-2.7l9.3-6.7c0.9-0.6,2-0.4,2.7,0.4l11.1,15.4c0.4,0.6,0.5,1.5,0.1,2.1
				C557.9,56.7,557.7,56.8,557.5,57z M547.3,52.6c0.4-0.3,0.9-0.4,1.4-0.3l3.5,0.6l-7.3-10.1l-6.2,4.5l7.3,10.1l0.6-3.5
				C546.6,53.3,546.9,52.9,547.3,52.6z"/>
		</g>
	</g>
	<g opacity="0.2">
		<g>
			<g>
				<path fill="#FFFBD2" d="M296.7,0l-19.3,39.8l-16.3-7.9c-1.8,4.5,0,9.6,4.2,12l0,0l62,30c-0.1,0-0.2-0.1-0.3-0.1
					c4.6,2,9.9,0.3,12.4-4l0.2-0.3l20.8-42.9L373.2,0H296.7z"/>
				<path fill="#4B5A70" d="M371.1,0l-33.4,68.9c-2,3.4-6.3,4.8-10,3.2c-0.1,0-0.1,0-0.2-0.1l-61.2-29.6c-0.1,0-0.1-0.1-0.2-0.1
					c-2.7-1.6-4.2-4.6-3.9-7.7l14.2,6.9c0.9,0.5,2.1,0.1,2.5-0.9L298.8,0h-4.2l-18.1,37.3l-14.6-7.1c-0.5-0.2-1-0.3-1.5-0.1
					c-0.5,0.2-0.9,0.6-1.1,1.1c-2,5.2,0,11.2,4.6,14.1c0.1,0.1,0.3,0.2,0.5,0.3l62,30c0,0,0,0,0,0c0,0,0,0,0,0
					c0.1,0.1,0.3,0.1,0.4,0.1c5.3,2,11.3-0.1,14.2-5c0,0,0-0.1,0.1-0.1L375.3,0H371.1z"/>
			</g>
			<g>
				<path fill="#4B5A70" d="M264.6,45.7l-0.2-0.1c-0.9-0.5-1.3-1.6-0.9-2.5s1.6-1.3,2.5-0.9l0.2,0.1c3.5,1.7,7.8,0.2,9.5-3.3
					c0.5-0.9,1.6-1.3,2.5-0.9c0.9,0.5,1.3,1.6,0.9,2.5C276.5,46,270,48.3,264.6,45.7z"/>
			</g>
		</g>
		<g>
			<path fill="#4B5A70" d="M360.4,0l2.4,1.2c0.9,0.5,2.1,0.1,2.5-0.9c0-0.1,0.1-0.2,0.1-0.3H360.4z"/>
		</g>
		<g>
			<path fill="#4B5A70" d="M360.3,6.5L346.8,0h-8.7l20.5,9.9c0.9,0.5,2.1,0.1,2.5-0.9C361.6,8.1,361.2,7,360.3,6.5z"/>
		</g>
		<g>
			<path fill="#4B5A70" d="M356,15.3L324.5,0h-8.7l38.6,18.7c0.9,0.5,2.1,0.1,2.5-0.9C357.4,16.8,357,15.7,356,15.3z"/>
		</g>
		<g>
			<path fill="#4B5A70" d="M350.1,27.4L303.1,4.6c-0.9-0.5-1.3-1.6-0.9-2.5c0.5-0.9,1.6-1.3,2.5-0.9L351.8,24
				c0.9,0.5,1.3,1.6,0.9,2.5C352.2,27.5,351.1,27.9,350.1,27.4z"/>
		</g>
		<g>
			<path fill="#4B5A70" d="M343.9,43.4l-14.8-7.2c-0.9-0.5-1.3-1.6-0.9-2.5s1.6-1.3,2.5-0.9l14.8,7.2c0.9,0.5,1.3,1.6,0.9,2.5
				C346,43.5,344.8,43.8,343.9,43.4z"/>
		</g>
		<g>
			<path fill="#4B5A70" d="M339.1,53.4l-14.8-7.2c-0.9-0.5-1.3-1.6-0.9-2.5c0.5-0.9,1.6-1.3,2.5-0.9l14.8,7.2
				c0.9,0.5,1.3,1.6,0.9,2.5C341.1,53.4,340,53.8,339.1,53.4z"/>
		</g>
	</g>
	<g opacity="0.2">
		<g>
			<polygon fill="#FFFFFF" points="0,68.3 106,40.1 95.4,0 0,0 			"/>
			<path fill="#4B5A70" d="M107.9,39.6L97.3,0h-3.9l10.3,38.8L0,66.3v3.9L106.5,42C107.5,41.7,108.1,40.7,107.9,39.6z"/>
		</g>
		<g>
			<polygon fill="#FFFFFF" points="0,60.4 99.2,34.1 90.1,0 0,0 			"/>
			<path fill="#4B5A70" d="M101,33.6L92.1,0h-3.9l8.7,32.7L0,58.5v3.9l99.7-26.5C100.7,35.7,101.3,34.6,101,33.6z"/>
		</g>
		<g>
			<polygon fill="#FFFFFF" points="0,75.3 121.4,43.1 119.5,36 0,67.7 			"/>
			<path fill="#4B5A70" d="M123.2,42.6l-1.9-7.1c-0.3-1-1.3-1.6-2.3-1.3L0,65.8v3.9l118.2-31.4l0.9,3.4L0,73.3v3.9l121.9-32.4
				C122.9,44.6,123.5,43.6,123.2,42.6z"/>
		</g>
	</g>
	<g opacity="0.2">
		<g>
			<path fill="#FFFFFF" d="M1400,165.6l-54.9,14.6c-1.9,0.5-3.1,2.5-2.6,4.4l20,75.4l37.4-9.9V165.6z"/>
			<path fill="#4B5A70" d="M1400,248.2l-36,9.6l-19.3-72.7c-0.4-1.4,0.5-2.9,1.9-3.3l53.4-14.2v-3.9l-54.4,14.5
				c-3.4,0.9-5.5,4.5-4.6,7.9l19.8,74.5c0.3,1,1.3,1.6,2.3,1.3l36.9-9.8V248.2z"/>
		</g>
		<g>
			<polygon fill="#FFFFFF" points="1400,174.8 1348.8,188.4 1365.6,251.4 1400,242.3 			"/>
			<path fill="#4B5A70" d="M1400,240.3l-33.1,8.8l-15.8-59.3l48.9-13v-3.9l-51.7,13.7c-1,0.3-1.6,1.3-1.3,2.3l16.7,63
				c0.3,1,1.3,1.6,2.3,1.3l34-9V240.3z"/>
		</g>
		<g>
			<polygon fill="#FFFFFF" points="1400,249.5 1348.8,263.1 1350.7,270.2 1400,257.1 			"/>
			<path fill="#4B5A70" d="M1400,255.2l-47.9,12.7l-0.9-3.4l48.8-13v-3.9l-51.6,13.7c-1,0.3-1.6,1.3-1.3,2.3l1.9,7.1
				c0.3,1,1.3,1.6,2.3,1.3l48.8-13V255.2z"/>
		</g>
	</g>
	<g opacity="0.2">
		<g>
			<polygon fill="#FFFFFF" points="944,0 933.1,29.7 1050.6,72.9 1077.5,0 			"/>
			<path fill="#4B5A70" d="M1075.4,0l-25.9,70.5l-114-41.9L946,0h-4l-10.7,29c-0.4,1,0.1,2.1,1.1,2.4L1050,74.7
				c1,0.4,2.1-0.1,2.4-1.1L1079.5,0H1075.4z"/>
		</g>
		<g>
			<polygon fill="#FFFFFF" points="944,0 934.5,26 1052,69.3 1077.5,0 			"/>
			<path fill="#4B5A70" d="M1075.4,0l-24.6,66.8l-114-41.9L946,0h-4l-9.3,25.4c-0.4,1,0.1,2.1,1.1,2.4L1051.3,71
				c1,0.4,2.1-0.1,2.4-1.1L1079.5,0H1075.4z"/>
		</g>
		<g>
			<path fill="#FFFBD2" d="M1010.7,0H951l-7.9,21.6l42.4,15.6c5.6,2.1,9.1,6.6,7.8,10.2L1010.7,0z"/>
			<path fill="#4B5A70" d="M1008.7,0l-15,40.8c-1.6-2.2-4.2-4.2-7.5-5.4l-40.7-15L953,0h-4l-7.7,20.9c-0.4,1,0.1,2.1,1.1,2.4
				L984.8,39c5,1.8,7.5,5.6,6.7,7.8c-0.4,1,0.1,2.1,1.1,2.4c1,0.4,2.1-0.1,2.4-1.1L1012.8,0H1008.7z"/>
		</g>
		<g>
			<path fill="#FFFFFF" d="M1010.7,0l-17.4,47.4c1.3-3.6,6.9-4.8,12.6-2.7l42.4,15.6l18.8-51L1041.9,0H1010.7z"/>
			<path fill="#4B5A70" d="M1067.7,7.5L1047.4,0h-11l28.2,10.4l-17.5,47.5l-40.7-15c-3.3-1.2-6.6-1.4-9.3-0.8L1012.8,0h-4
				l-17.2,46.8c-0.4,1,0.1,2.1,1.1,2.4c1,0.4,2.1-0.1,2.4-1.1c0.8-2.2,5.2-3.4,10.1-1.6l42.4,15.6c1,0.4,2.1-0.1,2.4-1.1l18.8-51
				C1069.2,8.9,1068.7,7.8,1067.7,7.5z"/>
		</g>
		<g>
			<g>
				<g>
					<path fill="#FFFBD2" d="M1010.7,0H951l-6.4,17.4L987,33c5.6,2.1,8.5,8.3,6.4,13.9L1010.7,0z"/>
					<path fill="#4B5A70" d="M1008.7,0l-13.9,37.8c-1.4-2.9-3.9-5.3-7.1-6.5l-40.7-15L953,0h-4l-6.2,16.7c-0.4,1,0.1,2.1,1.1,2.4
						l42.4,15.6c4.6,1.7,7,6.9,5.3,11.5c-0.4,1,0.1,2.1,1.1,2.4c1,0.4,2.1-0.1,2.4-1.1L1012.8,0H1008.7z"/>
				</g>
				<g>
					<path fill="#4B5A70" d="M996.6,1.8L991.8,0h-11l14.4,5.3c1,0.4,2.1-0.1,2.4-1.1C998.1,3.2,997.6,2.1,996.6,1.8z"/>
				</g>
				<g>
					<path fill="#4B5A70" d="M993.7,9.7L967.4,0h-9.9c0.2,0.3,0.5,0.6,0.9,0.7l34,12.5c1,0.4,2.1-0.1,2.4-1.1
						C995.2,11.1,994.7,10,993.7,9.7z"/>
				</g>
				<g>
					<path fill="#4B5A70" d="M989.5,21.2l-34-12.5c-1-0.4-1.5-1.5-1.1-2.4c0.4-1,1.5-1.5,2.4-1.1l34,12.5c1,0.4,1.5,1.5,1.1,2.4
						C991.5,21,990.5,21.5,989.5,21.2z"/>
				</g>
			</g>
			<g>
				<path fill="#FFFFFF" d="M1010.7,0l-17.3,47c2.1-5.6,8.3-8.5,13.9-6.4l42.4,15.6L1070.5,0H1010.7z"/>
				<path fill="#4B5A70" d="M1068.5,0l-19.8,53.7l-40.7-15c-3.3-1.2-6.7-1-9.7,0.4L1012.8,0h-4l-17,46.3c-0.4,1,0.1,2.1,1.1,2.4
					c1,0.4,2.1-0.1,2.4-1.1c1.7-4.6,6.9-7,11.5-5.3l42.4,15.6c1,0.4,2.1-0.1,2.4-1.1L1072.5,0H1068.5z"/>
			</g>
			<g>
				<path fill="#4B5A70" d="M1054.2,0l7.6,2.8c1,0.4,2.1-0.1,2.4-1.1c0.2-0.6,0.1-1.2-0.2-1.7H1054.2z"/>
			</g>
			<g>
				<path fill="#4B5A70" d="M1060.2,7.1L1040.7,0h-11l29.1,10.7c1,0.4,2.1-0.1,2.4-1.1S1061.1,7.5,1060.2,7.1z"/>
			</g>
			<g>
				<path fill="#4B5A70" d="M1055.9,18.6l-34-12.5c-1-0.4-1.5-1.5-1.1-2.4s1.5-1.5,2.4-1.1l34,12.5c1,0.4,1.5,1.5,1.1,2.4
					C1058,18.5,1056.9,19,1055.9,18.6z"/>
			</g>
			<g>
				<path fill="#4B5A70" d="M1053,26.6l-34-12.5c-1-0.4-1.5-1.5-1.1-2.4c0.4-1,1.5-1.5,2.4-1.1l34,12.5c1,0.4,1.5,1.5,1.1,2.4
					C1055.1,26.4,1054,26.9,1053,26.6z"/>
			</g>
			<g>
				<path fill="#4B5A70" d="M1050.1,34.5l-34-12.5c-1-0.4-1.5-1.5-1.1-2.4c0.4-1,1.5-1.5,2.4-1.1l34,12.5c1,0.4,1.5,1.5,1.1,2.4
					C1052.2,34.3,1051.1,34.8,1050.1,34.5z"/>
			</g>
			<g>
				<path fill="#4B5A70" d="M1047.2,42.4l-34-12.5c-1-0.4-1.5-1.5-1.1-2.4c0.4-1,1.5-1.5,2.4-1.1l34,12.5c1,0.4,1.5,1.5,1.1,2.4
					C1049.3,42.3,1048.2,42.8,1047.2,42.4z"/>
			</g>
		</g>
	</g>
	<g opacity="0.2">
		<g>
			<polygon fill="#FFFFFF" points="426.1,980 437.6,948.8 320,905.5 292.6,980 			"/>
			<path fill="#4B5A70" d="M294.6,980l26.5-72l114,41.9L424,980h4l11.2-30.6c0.4-1-0.1-2.1-1.1-2.4l-117.5-43.2
				c-1-0.4-2.1,0.1-2.4,1.1L290.6,980H294.6z"/>
		</g>
		<g>
			<polygon fill="#FFFFFF" points="426.1,980 438.9,945.1 321.4,901.8 292.6,980 			"/>
			<path fill="#4B5A70" d="M294.6,980l27.9-75.7l114,41.9L424,980h4l12.6-34.3c0.4-1-0.1-2.1-1.1-2.4L322,900.1
				c-1-0.4-2.1,0.1-2.4,1.1l-29,78.8H294.6z"/>
		</g>
		<g>
			<path fill="#FFFBD2" d="M359.3,980l7.7-20.9c1.3-3.6-2.2-8.1-7.8-10.2l-42.4-15.6L299.6,980H359.3z"/>
			<path fill="#4B5A70" d="M301.6,980l16.3-44.3l40.7,15c5,1.8,7.5,5.6,6.7,7.8l-7.9,21.5h4l7.4-20.2c1.7-4.6-2.2-10.2-8.9-12.7
				l-42.4-15.6c-1-0.4-2.1,0.1-2.4,1.1L297.6,980H301.6z"/>
		</g>
		<g>
			<path fill="#FFFFFF" d="M419.1,980l2.9-8l-42.4-15.6c-5.6-2.1-11.3-0.9-12.6,2.7l-7.7,20.9H419.1z"/>
			<path fill="#4B5A70" d="M361.4,980l7.4-20.2c0.8-2.2,5.2-3.4,10.1-1.6l40.7,15l-2.5,6.8h4l2.7-7.3c0.4-1-0.1-2.1-1.1-2.4
				l-42.4-15.6c-6.7-2.5-13.3-0.8-15,3.8l-7.9,21.5H361.4z"/>
		</g>
		<g>
			<g>
				<g>
					<path fill="#FFFBD2" d="M359.3,980l18.6-50.6c2.1-5.6-0.8-11.9-6.4-13.9l-42.4-15.6L299.6,980H359.3z"/>
					<path fill="#4B5A70" d="M304.6,980l-2.6-1l28.3-76.8l40.7,15c4.6,1.7,7,6.9,5.3,11.5L357.3,980h4l18.4-50
						c2.4-6.6-1-13.9-7.6-16.4L329.7,898c-1-0.4-2.1,0.1-2.4,1.1l-29.6,80.4c-0.1,0.2-0.1,0.3-0.1,0.5H304.6z"/>
				</g>
				<g>
					<path fill="#4B5A70" d="M364.8,928.5l-34-12.5c-1-0.4-1.5-1.5-1.1-2.4s1.5-1.5,2.4-1.1l34,12.5c1,0.4,1.5,1.5,1.1,2.4
						S365.8,928.8,364.8,928.5z"/>
				</g>
				<g>
					<path fill="#4B5A70" d="M361.9,936.4l-34-12.5c-1-0.4-1.5-1.5-1.1-2.4s1.5-1.5,2.4-1.1l34,12.5c1,0.4,1.5,1.5,1.1,2.4
						S362.9,936.8,361.9,936.4z"/>
				</g>
				<g>
					<path fill="#4B5A70" d="M359,944.3l-34-12.5c-1-0.4-1.5-1.5-1.1-2.4c0.4-1,1.5-1.5,2.4-1.1l34,12.5c1,0.4,1.5,1.5,1.1,2.4
						C361.1,944.2,360,944.7,359,944.3z"/>
				</g>
				<g>
					<path fill="#4B5A70" d="M356.1,952.2l-34-12.5c-1-0.4-1.5-1.5-1.1-2.4s1.5-1.5,2.4-1.1l34,12.5c1,0.4,1.5,1.5,1.1,2.4
						S357,952.6,356.1,952.2z"/>
				</g>
				<g>
					<path fill="#4B5A70" d="M353.1,960.2l-34-12.5c-1-0.4-1.5-1.5-1.1-2.4s1.5-1.5,2.4-1.1l34,12.5c1,0.4,1.5,1.5,1.1,2.4
						S354.1,960.5,353.1,960.2z"/>
				</g>
				<g>
					<path fill="#4B5A70" d="M350.2,968.1l-34-12.5c-1-0.4-1.5-1.5-1.1-2.4c0.4-1,1.5-1.5,2.4-1.1l34,12.5c1,0.4,1.5,1.5,1.1,2.4
						S351.2,968.4,350.2,968.1z"/>
				</g>
				<g>
					<path fill="#4B5A70" d="M347.3,976l-34-12.5c-1-0.4-1.5-1.5-1.1-2.4s1.5-1.5,2.4-1.1l34,12.5c1,0.4,1.5,1.5,1.1,2.4
						C349.4,975.9,348.3,976.4,347.3,976z"/>
				</g>
				<g>
					<path fill="#4B5A70" d="M310.5,971.4l23.3,8.6h11l-33-12.1c-1-0.4-2.1,0.1-2.4,1.1C309,970,309.5,971.1,310.5,971.4z"/>
				</g>
			</g>
			<g>
				<path fill="#FFFFFF" d="M419.1,980l15.3-41.5l-42.4-15.6c-5.6-2.1-11.9,0.8-13.9,6.4L359.3,980H419.1z"/>
				<path fill="#4B5A70" d="M361.4,980l18.4-50c1.7-4.6,6.9-7,11.5-5.3l40.7,15L417.1,980h4l15-40.8c0.4-1-0.1-2.1-1.1-2.4
					l-42.4-15.6c-6.6-2.4-13.9,1-16.4,7.6L357.3,980H361.4z"/>
			</g>
			<g>
				<path fill="#4B5A70" d="M422.5,949.7l-34-12.5c-1-0.4-1.5-1.5-1.1-2.4s1.5-1.5,2.4-1.1l34,12.5c1,0.4,1.5,1.5,1.1,2.4
					S423.5,950.1,422.5,949.7z"/>
			</g>
			<g>
				<path fill="#4B5A70" d="M419.6,957.6l-34-12.5c-1-0.4-1.5-1.5-1.1-2.4s1.5-1.5,2.4-1.1l34,12.5c1,0.4,1.5,1.5,1.1,2.4
					C421.7,957.5,420.6,958,419.6,957.6z"/>
			</g>
			<g>
				<path fill="#4B5A70" d="M416.7,965.6l-34-12.5c-1-0.4-1.5-1.5-1.1-2.4s1.5-1.5,2.4-1.1l34,12.5c1,0.4,1.5,1.5,1.1,2.4
					S417.7,965.9,416.7,965.6z"/>
			</g>
			<g>
				<path fill="#4B5A70" d="M413.8,973.5l-34-12.5c-1-0.4-1.5-1.5-1.1-2.4c0.4-1,1.5-1.5,2.4-1.1l34,12.5c1,0.4,1.5,1.5,1.1,2.4
					S414.8,973.8,413.8,973.5z"/>
			</g>
			<g>
				<path fill="#4B5A70" d="M376.9,968.9l30.2,11.1h6.3c0.2-0.9-0.3-1.8-1.2-2.2l-34-12.5c-1-0.4-2.1,0.1-2.4,1.1
					C375.4,967.5,375.9,968.5,376.9,968.9z"/>
			</g>
			<g>
				<path fill="#4B5A70" d="M374,976.8l8.6,3.2h11l-18.3-6.7c-1-0.4-2.1,0.1-2.4,1.1C372.5,975.4,373,976.5,374,976.8z"/>
			</g>
		</g>
	</g>
	<g opacity="0.2">
		<g>
			<path fill="#FFFFFF" d="M1350.1,895.9L1350.1,895.9c-17.8,6.5-27.1,26.2-20.6,44.1l0,0c3.5,9.7,11,16.9,19.9,20.3
				c5.8,2.2,10.4,6.8,12.5,12.6l0,0c1.4,3.7,5.5,5.6,9.2,4.3l15-5.5c3.7-1.4,5.6-5.5,4.3-9.2v0c-2.1-5.8-1.5-12.3,1.5-17.7
				c4.6-8.4,5.8-18.7,2.2-28.4v0C1387.7,898.6,1368,889.4,1350.1,895.9z"/>
			<path fill="#4B5A70" d="M1386.8,973.5l-15,5.5c-4.7,1.7-9.9-0.7-11.6-5.4c-1.9-5.3-6.1-9.4-11.4-11.5c-9.8-3.8-17.4-11.6-21-21.4
				c-6.8-18.8,2.9-39.7,21.7-46.5c18.8-6.8,39.7,2.9,46.5,21.7c3.6,9.8,2.7,20.8-2.4,29.9c-2.8,5-3.3,10.9-1.3,16.1
				C1394,966.5,1391.5,971.8,1386.8,973.5z M1350.8,897.6c-16.8,6.1-25.5,24.8-19.4,41.6c3.2,8.8,10.1,15.8,18.8,19.2
				c6.4,2.5,11.3,7.5,13.6,13.8c1,2.7,4,4.1,6.7,3.1l15-5.5c2.7-1,4.1-4,3.1-6.7c-2.3-6.3-1.7-13.3,1.6-19.3
				c4.5-8.2,5.3-18,2.1-26.8C1386.3,900.2,1367.6,891.5,1350.8,897.6z"/>
		</g>
		<g>
			<polygon fill="#FFFFFF" points="1395.4,980 1393.4,974.6 1378.5,980 			"/>
			<path fill="#4B5A70" d="M1384,980l8.3-3l1.1,3h4l-2.2-6.1c-0.4-1-1.4-1.5-2.4-1.1l-19.9,7.2H1384z"/>
		</g>
		<g>
			<path fill="#4B5A70" d="M1374.3,977c-0.8,0.3-1.8,0-2.3-0.8l-25.7-43.4c-0.4-0.7-0.3-1.5,0.1-2.1c0.5-0.6,1.3-0.9,2-0.7l8.9,2.3
				l2.3-5.8c0.4-1,1.7-1.5,2.7-1l5.5,2.9l5.4-7.5c0.4-0.6,1.2-0.9,2-0.7c0.7,0.2,1.3,0.8,1.4,1.5l8.2,49.8c0.2,1-0.5,2-1.6,2.2
				c-1,0.2-2-0.5-2.2-1.6l-7.5-45.2l-3.7,5.1c-0.6,0.8-1.6,1-2.4,0.6l-5.1-2.7l-2.2,5.4c-0.4,0.9-1.3,1.4-2.2,1.1l-6.1-1.6
				l23.3,39.5c0.5,0.9,0.2,2.1-0.7,2.6C1374.6,976.9,1374.5,977,1374.3,977z"/>
		</g>
		<g>
			<path fill="#4B5A70" d="M1348.7,891.9c-1,0.4-2.1-0.2-2.4-1.1l-6.2-17.2c-0.4-1,0.2-2.1,1.1-2.4c1-0.4,2.1,0.2,2.4,1.1l6.2,17.2
				C1350.2,890.5,1349.7,891.6,1348.7,891.9z"/>
		</g>
		<g>
			<path fill="#4B5A70" d="M1380,893.3c-0.5,0.2-1,0.2-1.5-0.1c-1-0.4-1.4-1.6-0.9-2.5l7.7-16.5c0.4-1,1.6-1.4,2.5-0.9
				c1,0.4,1.4,1.6,0.9,2.5l-7.7,16.5C1380.9,892.8,1380.5,893.1,1380,893.3z"/>
		</g>
		<g>
			<path fill="#4B5A70" d="M1400,912.9L1400,912.9c-1.1,0.4-1.6,1.5-1.2,2.5c0.2,0.6,0.7,1,1.2,1.2V912.9z"/>
		</g>
		<g>
			<path fill="#4B5A70" d="M1400,944.3L1400,944.3c-1-0.4-2.1,0-2.5,0.9c-0.4,0.9,0,2.1,0.9,2.5l1.6,0.8V944.3z"/>
		</g>
		<g>
			<path fill="#4B5A70" d="M1325.6,913.1c-0.5,0.2-1,0.2-1.5-0.1l-16.5-7.7c-1-0.4-1.4-1.6-0.9-2.5c0.4-1,1.6-1.4,2.5-0.9l16.5,7.7
				c1,0.4,1.4,1.6,0.9,2.5C1326.4,912.6,1326,912.9,1325.6,913.1z"/>
		</g>
		<g>
			<path fill="#4B5A70" d="M1324.2,944.4l-17.2,6.2c-1,0.4-2.1-0.2-2.4-1.1c-0.4-1,0.2-2.1,1.1-2.4l17.2-6.2c1-0.4,2.1,0.2,2.4,1.1
				C1325.7,943,1325.2,944.1,1324.2,944.4z"/>
		</g>
		<g>
			<path fill="#4B5A70" d="M1340.2,980l6.3-13.4c0.4-0.9,0-2.1-0.9-2.5c-1-0.4-2.1,0-2.5,0.9l-7,15H1340.2z"/>
		</g>
	</g>
	<g opacity="0.2">
		<g>
			<g>
				<path fill="#FFFFFF" d="M55.7,507.3c-10-12.6-35.2-11.6-46.6,10.7c-3.2-0.8-6.2-1.2-9.1-1.2v65.5c6.2,4.4,12.2,7.4,16.7,7.8
					c14.3,1.3,18.1-15,18.1-15s14.7,7.9,23.2-3.6C66.6,559.8,65.7,519.9,55.7,507.3z"/>
				<path fill="#4B5A70" d="M57.2,506.1c-7-8.8-20.6-11.4-32.5-6c-6.9,3.1-12.6,8.5-16.6,15.8c-2.7-0.6-5.5-0.9-8.1-1v3.8
					c2.8,0,5.7,0.4,8.7,1.2c0.9,0.2,1.8-0.2,2.2-1c3.6-7.1,9-12.4,15.5-15.3c10.3-4.6,22-2.6,27.9,4.9c9.2,11.7,10.7,50.4,2.3,61.8
					c-1.5,2-3.2,3.4-5.2,4.3c0,0,0,0,0,0c-7.1,3.2-15.5-1.2-15.6-1.3c-0.5-0.3-1.1-0.3-1.7-0.1c-0.5,0.2-0.9,0.7-1.1,1.3
					c0,0.1-2.2,9.3-9.4,12.5c-2,0.9-4.3,1.3-6.7,1c-4.6-0.4-10.7-3.5-16.9-8.1v4.5c6.1,4.1,11.9,6.9,16.6,7.3c3.1,0.3,6-0.2,8.6-1.4
					c6.5-2.9,9.6-9.5,10.8-12.9c3.4,1.4,10.4,3.4,16.9,0.4c0,0,0,0,0,0c2.6-1.2,4.9-3,6.7-5.5C68.9,559.9,67.4,519,57.2,506.1z"/>
			</g>
			<g>
				<path fill="#4B5A70" d="M10.1,507.2C10.1,507.2,10.1,507.2,10.1,507.2c-1,0.5-2.1,0.9-3.2,1.2c-0.8,0.3-1.8-0.1-2.2-0.8
					c-3.6-5.9-4.5-11.9-2.9-17.7c3.3-11.6,15.8-18.3,16.4-18.6c0.5-0.2,1-0.3,1.6-0.1c0.5,0.2,0.9,0.6,1.1,1.1
					C21,472.5,30.4,498,10.1,507.2z M7.2,504.3c0.5-0.2,0.9-0.4,1.3-0.6c14.1-6.3,11.1-22.1,9.5-27.9c-3.4,2.2-10.4,7.6-12.5,15.1
					C4.3,495.2,4.8,499.7,7.2,504.3z"/>
			</g>
		</g>
		<g>
			<path fill="#4B5A70" d="M10.9,517.4c-0.1-0.2-3-8.7-10.9-15.4v5c5.1,5.3,7.2,11.1,7.3,11.6c0.3,1,1.4,1.5,2.4,1.2
				c0.1,0,0.1,0,0.2-0.1C10.8,519.3,11.2,518.3,10.9,517.4z"/>
		</g>
	</g>
</g>
</svg>
